<svg xmlns="http://www.w3.org/2000/svg" xmlns:xlink="http://www.w3.org/1999/xlink" width="500" zoomAndPan="magnify" viewBox="0 0 375 374.999991" height="500" preserveAspectRatio="xMidYMid meet" version="1.0"><defs><g/><clipPath id="63fc4da1c3"><path d="M 145.246094 110.574219 L 229.753906 110.574219 L 229.753906 195.078125 L 145.246094 195.078125 Z M 145.246094 110.574219 " clip-rule="nonzero"/></clipPath><clipPath id="3153378586"><path d="M 187.5 110.574219 C 164.164062 110.574219 145.246094 129.488281 145.246094 152.824219 C 145.246094 176.160156 164.164062 195.078125 187.5 195.078125 C 210.835938 195.078125 229.753906 176.160156 229.753906 152.824219 C 229.753906 129.488281 210.835938 110.574219 187.5 110.574219 Z M 187.5 110.574219 " clip-rule="nonzero"/></clipPath><clipPath id="9af340c254"><path d="M 159 119.332031 L 218 119.332031 L 218 193 L 159 193 Z M 159 119.332031 " clip-rule="nonzero"/></clipPath><clipPath id="7b41cf29b8"><path d="M 180 119.332031 L 218 119.332031 L 218 150 L 180 150 Z M 180 119.332031 " clip-rule="nonzero"/></clipPath><clipPath id="cc8e5fcb63"><path d="M 158 206 L 217 206 L 217 212.332031 L 158 212.332031 Z M 158 206 " clip-rule="nonzero"/></clipPath></defs><g clip-path="url(#63fc4da1c3)"><g clip-path="url(#3153378586)"><path fill="#5f4be2" d="M 145.246094 110.574219 L 229.753906 110.574219 L 229.753906 195.078125 L 145.246094 195.078125 Z M 145.246094 110.574219 " fill-opacity="1" fill-rule="nonzero"/></g></g><path fill="#fff6eb" d="M 170.445312 207.582031 C 170.082031 207.582031 169.710938 207.5 169.367188 207.335938 L 161.050781 203.382812 C 160.089844 202.921875 159.519531 201.90625 159.628906 200.84375 L 162.277344 175.609375 C 162.363281 174.796875 162.839844 174.078125 163.550781 173.679688 C 163.933594 173.464844 164.355469 173.355469 164.78125 173.355469 C 165.152344 173.355469 165.519531 173.4375 165.863281 173.601562 L 189.441406 184.820312 C 190.175781 185.167969 190.699219 185.855469 190.839844 186.660156 C 190.976562 187.464844 190.71875 188.289062 190.140625 188.867188 L 172.230469 206.839844 C 171.746094 207.324219 171.101562 207.582031 170.445312 207.582031 Z M 170.445312 207.582031 " fill-opacity="1" fill-rule="nonzero"/><path fill="#5f4be2" d="M 164.78125 175.875 L 188.359375 187.089844 L 170.449219 205.0625 L 162.132812 201.109375 L 164.78125 175.875 M 164.78125 170.839844 C 163.929688 170.839844 163.082031 171.054688 162.320312 171.484375 C 160.894531 172.28125 159.945312 173.722656 159.773438 175.347656 L 157.125 200.582031 C 156.902344 202.703125 158.042969 204.738281 159.96875 205.652344 L 168.285156 209.609375 C 168.976562 209.9375 169.714844 210.097656 170.445312 210.097656 C 171.753906 210.097656 173.046875 209.585938 174.011719 208.617188 L 191.921875 190.644531 C 193.078125 189.488281 193.597656 187.84375 193.316406 186.230469 C 193.039062 184.621094 191.996094 183.246094 190.519531 182.546875 L 166.945312 171.328125 C 166.257812 171 165.519531 170.839844 164.78125 170.839844 Z M 164.78125 170.839844 " fill-opacity="1" fill-rule="nonzero"/><path fill="#fff6eb" d="M 188.359375 189.609375 C 187.996094 189.609375 187.628906 189.53125 187.277344 189.363281 L 163.699219 178.144531 C 162.472656 177.5625 161.929688 176.109375 162.472656 174.863281 L 162.507812 174.785156 C 162.5625 174.660156 162.617188 174.53125 162.679688 174.40625 L 186.0625 125.261719 C 186.664062 123.992188 188.320312 121.859375 192.621094 121.859375 C 199.5 121.859375 210.242188 127.351562 213.519531 132.539062 C 215.214844 135.222656 214.828125 137.347656 214.207031 138.652344 L 190.824219 187.796875 C 190.761719 187.925781 190.699219 188.050781 190.632812 188.175781 L 190.59375 188.246094 C 190.148438 189.109375 189.269531 189.609375 188.359375 189.609375 Z M 188.359375 189.609375 " fill-opacity="1" fill-rule="nonzero"/><g clip-path="url(#9af340c254)"><path fill="#5f4be2" d="M 192.625 124.378906 C 200.246094 124.378906 214.378906 132.4375 211.933594 137.574219 L 188.550781 186.714844 C 188.492188 186.84375 188.425781 186.96875 188.359375 187.09375 L 164.78125 175.871094 C 164.835938 175.742188 164.890625 175.613281 164.953125 175.488281 L 188.335938 126.34375 C 188.992188 124.960938 190.570312 124.378906 192.625 124.378906 M 192.625 119.34375 C 186.941406 119.34375 184.648438 122.375 183.789062 124.179688 L 160.40625 173.324219 C 160.332031 173.476562 160.265625 173.628906 160.199219 173.785156 L 160.167969 173.855469 C 159.078125 176.347656 160.164062 179.25 162.617188 180.417969 L 186.199219 191.636719 C 186.894531 191.96875 187.632812 192.128906 188.355469 192.128906 C 190.183594 192.128906 191.941406 191.128906 192.832031 189.402344 L 192.867188 189.332031 C 192.945312 189.183594 193.023438 189.035156 193.097656 188.878906 L 216.480469 139.734375 C 217.210938 138.199219 218.078125 135.042969 215.648438 131.195312 C 211.871094 125.214844 200.464844 119.34375 192.625 119.34375 Z M 192.625 119.34375 " fill-opacity="1" fill-rule="nonzero"/></g><path fill="#fff6eb" d="M 208.695312 146.894531 C 208.324219 146.894531 207.957031 146.8125 207.613281 146.648438 L 184.015625 135.421875 C 182.761719 134.824219 182.226562 133.320312 182.824219 132.066406 L 186.0625 125.261719 C 186.667969 123.992188 188.324219 121.859375 192.625 121.859375 C 199.5 121.859375 210.242188 127.351562 213.519531 132.539062 C 215.214844 135.222656 214.828125 137.347656 214.207031 138.652344 L 210.96875 145.457031 C 210.683594 146.0625 210.167969 146.527344 209.539062 146.75 C 209.265625 146.84375 208.980469 146.894531 208.695312 146.894531 Z M 208.695312 146.894531 " fill-opacity="1" fill-rule="nonzero"/><g clip-path="url(#7b41cf29b8)"><path fill="#5f4be2" d="M 192.625 124.378906 C 200.246094 124.375 214.378906 132.4375 211.933594 137.574219 L 208.695312 144.378906 L 185.097656 133.148438 L 188.335938 126.34375 C 188.992188 124.960938 190.574219 124.378906 192.625 124.378906 M 192.625 119.34375 C 192.625 119.34375 192.625 119.34375 192.621094 119.34375 C 186.9375 119.34375 184.648438 122.375 183.789062 124.179688 L 180.550781 130.984375 C 179.355469 133.496094 180.421875 136.5 182.933594 137.695312 L 206.535156 148.921875 C 207.230469 149.253906 207.96875 149.414062 208.691406 149.414062 C 210.574219 149.414062 212.378906 148.351562 213.242188 146.539062 L 216.480469 139.734375 C 217.210938 138.195312 218.078125 135.042969 215.648438 131.195312 C 211.871094 125.214844 200.464844 119.34375 192.625 119.34375 Z M 192.625 119.34375 " fill-opacity="1" fill-rule="nonzero"/></g><g clip-path="url(#cc8e5fcb63)"><path fill="#5f4be2" d="M 214.441406 212.011719 L 160.558594 212.011719 C 159.167969 212.011719 158.042969 210.882812 158.042969 209.492188 C 158.042969 208.105469 159.167969 206.976562 160.558594 206.976562 L 214.441406 206.976562 C 215.832031 206.976562 216.957031 208.105469 216.957031 209.492188 C 216.957031 210.882812 215.832031 212.011719 214.441406 212.011719 Z M 214.441406 212.011719 " fill-opacity="1" fill-rule="nonzero"/></g><path fill="#fff6eb" d="M 182.292969 175.613281 C 181.644531 175.613281 181.03125 175.476562 180.460938 175.210938 C 176.21875 173.203125 177.300781 165.996094 180.253906 159.742188 C 182.449219 155.097656 186.449219 149.675781 190.503906 149.675781 C 191.152344 149.675781 191.769531 149.8125 192.335938 150.082031 C 196.578125 152.085938 195.496094 159.292969 192.542969 165.546875 C 190.347656 170.191406 186.347656 175.613281 182.292969 175.613281 Z M 182.292969 175.613281 " fill-opacity="1" fill-rule="nonzero"/><path fill="#5f4be2" d="M 190.503906 152.191406 C 190.773438 152.191406 191.027344 152.246094 191.261719 152.355469 C 193.398438 153.367188 192.953125 158.789062 190.269531 164.472656 C 187.875 169.539062 184.511719 173.097656 182.292969 173.097656 C 182.023438 173.097656 181.769531 173.042969 181.539062 172.933594 C 179.402344 171.925781 179.84375 166.5 182.53125 160.816406 C 184.921875 155.753906 188.285156 152.195312 190.503906 152.191406 M 190.503906 147.160156 C 183.925781 147.160156 179.253906 155.96875 177.976562 158.667969 C 176.425781 161.949219 175.445312 165.339844 175.207031 168.21875 C 174.707031 174.328125 177.613281 176.648438 179.386719 177.484375 C 180.292969 177.914062 181.269531 178.132812 182.292969 178.132812 C 188.871094 178.132812 193.542969 169.324219 194.820312 166.625 C 196.371094 163.339844 197.351562 159.949219 197.589844 157.074219 C 198.089844 150.964844 195.183594 148.644531 193.410156 147.804688 C 192.503906 147.375 191.527344 147.160156 190.503906 147.160156 Z M 190.503906 147.160156 " fill-opacity="1" fill-rule="nonzero"/><g fill="#5f4be2" fill-opacity="1"><g transform="translate(128.40234, 241.98602)"><g><path d="M 12.203125 -3.5625 C 12.203125 -3.125 12.242188 -2.773438 12.328125 -2.515625 C 12.410156 -2.265625 12.519531 -2.070312 12.65625 -1.9375 C 12.800781 -1.800781 12.96875 -1.710938 13.15625 -1.671875 C 13.34375 -1.628906 13.539062 -1.609375 13.75 -1.609375 L 15.015625 -1.609375 L 15.015625 0 L 4.625 0 L 4.625 -1.609375 L 5.890625 -1.609375 C 6.117188 -1.609375 6.320312 -1.628906 6.5 -1.671875 C 6.6875 -1.710938 6.847656 -1.800781 6.984375 -1.9375 C 7.128906 -2.070312 7.238281 -2.265625 7.3125 -2.515625 C 7.394531 -2.773438 7.4375 -3.125 7.4375 -3.5625 L 7.4375 -19.640625 L 5.03125 -19.640625 C 4.570312 -19.640625 4.191406 -19.59375 3.890625 -19.5 C 3.585938 -19.40625 3.335938 -19.265625 3.140625 -19.078125 C 2.953125 -18.898438 2.8125 -18.675781 2.71875 -18.40625 C 2.632812 -18.144531 2.570312 -17.847656 2.53125 -17.515625 L 2.328125 -15.65625 L 0.296875 -15.65625 L 0.453125 -21.484375 L 19.203125 -21.484375 L 19.359375 -15.65625 L 17.34375 -15.65625 L 17.125 -17.515625 C 17.082031 -17.847656 17.015625 -18.144531 16.921875 -18.40625 C 16.828125 -18.675781 16.679688 -18.898438 16.484375 -19.078125 C 16.296875 -19.265625 16.050781 -19.40625 15.75 -19.5 C 15.445312 -19.59375 15.070312 -19.640625 14.625 -19.640625 L 12.203125 -19.640625 Z M 12.203125 -3.5625 "/></g></g></g><g fill="#5f4be2" fill-opacity="1"><g transform="translate(148.040858, 241.98602)"><g><path d="M 13.328125 0 L 12.671875 -2.125 L 12.515625 -2.125 C 12.210938 -1.613281 11.882812 -1.195312 11.53125 -0.875 C 11.175781 -0.550781 10.796875 -0.300781 10.390625 -0.125 C 9.992188 0.0390625 9.570312 0.148438 9.125 0.203125 C 8.6875 0.265625 8.234375 0.296875 7.765625 0.296875 C 6.191406 0.296875 4.984375 -0.1875 4.140625 -1.15625 C 3.304688 -2.125 2.890625 -3.625 2.890625 -5.65625 L 2.890625 -12.40625 C 2.890625 -12.84375 2.847656 -13.195312 2.765625 -13.46875 C 2.691406 -13.75 2.570312 -13.96875 2.40625 -14.125 C 2.238281 -14.28125 2.023438 -14.382812 1.765625 -14.4375 C 1.503906 -14.5 1.195312 -14.53125 0.84375 -14.53125 L 0.78125 -14.53125 L 0.78125 -16.140625 L 7.46875 -16.140625 L 7.46875 -6.5 C 7.46875 -5.851562 7.503906 -5.269531 7.578125 -4.75 C 7.648438 -4.226562 7.773438 -3.78125 7.953125 -3.40625 C 8.128906 -3.039062 8.363281 -2.757812 8.65625 -2.5625 C 8.945312 -2.363281 9.3125 -2.265625 9.75 -2.265625 C 10.238281 -2.265625 10.65625 -2.367188 11 -2.578125 C 11.34375 -2.785156 11.625 -3.085938 11.84375 -3.484375 C 12.070312 -3.878906 12.234375 -4.359375 12.328125 -4.921875 C 12.429688 -5.492188 12.484375 -6.128906 12.484375 -6.828125 L 12.484375 -12.609375 C 12.484375 -13.046875 12.425781 -13.390625 12.3125 -13.640625 C 12.195312 -13.898438 12.039062 -14.097656 11.84375 -14.234375 C 11.644531 -14.367188 11.410156 -14.453125 11.140625 -14.484375 C 10.878906 -14.515625 10.601562 -14.53125 10.3125 -14.53125 L 10.234375 -14.53125 L 10.234375 -16.140625 L 17.0625 -16.140625 L 17.0625 -3.5 C 17.0625 -3.0625 17.113281 -2.71875 17.21875 -2.46875 C 17.320312 -2.21875 17.457031 -2.023438 17.625 -1.890625 C 17.800781 -1.765625 18.007812 -1.6875 18.25 -1.65625 C 18.5 -1.625 18.773438 -1.609375 19.078125 -1.609375 L 19.328125 -1.609375 L 19.328125 0 Z M 13.328125 0 "/></g></g></g><g fill="#5f4be2" fill-opacity="1"><g transform="translate(168.105336, 241.98602)"><g><path d="M 9.453125 -2.125 C 9.835938 -2.125 10.207031 -2.148438 10.5625 -2.203125 C 10.925781 -2.265625 11.265625 -2.332031 11.578125 -2.40625 L 11.578125 -0.453125 C 11.421875 -0.378906 11.207031 -0.296875 10.9375 -0.203125 C 10.664062 -0.117188 10.351562 -0.0390625 10 0.03125 C 9.644531 0.101562 9.238281 0.164062 8.78125 0.21875 C 8.332031 0.269531 7.84375 0.296875 7.3125 0.296875 C 6.632812 0.296875 6.019531 0.210938 5.46875 0.046875 C 4.925781 -0.109375 4.460938 -0.375 4.078125 -0.75 C 3.703125 -1.132812 3.410156 -1.625 3.203125 -2.21875 C 2.992188 -2.820312 2.890625 -3.566406 2.890625 -4.453125 L 2.890625 -14.078125 L 0.625 -14.078125 L 0.625 -15.625 C 1.28125 -15.625 1.859375 -15.75 2.359375 -16 C 2.867188 -16.257812 3.273438 -16.554688 3.578125 -16.890625 C 4.203125 -17.535156 4.664062 -18.523438 4.96875 -19.859375 L 7.46875 -19.859375 L 7.46875 -16.140625 L 11.3125 -16.140625 L 11.3125 -14.078125 L 7.46875 -14.078125 L 7.46875 -4.765625 C 7.46875 -3.847656 7.617188 -3.175781 7.921875 -2.75 C 8.234375 -2.332031 8.742188 -2.125 9.453125 -2.125 Z M 9.453125 -2.125 "/></g></g></g><g fill="#5f4be2" fill-opacity="1"><g transform="translate(180.282101, 241.98602)"><g><path d="M 17.03125 -8.125 C 17.03125 -5.289062 16.363281 -3.175781 15.03125 -1.78125 C 13.707031 -0.394531 11.757812 0.296875 9.1875 0.296875 C 7.976562 0.296875 6.894531 0.125 5.9375 -0.21875 C 4.976562 -0.570312 4.160156 -1.097656 3.484375 -1.796875 C 2.816406 -2.492188 2.300781 -3.367188 1.9375 -4.421875 C 1.582031 -5.484375 1.40625 -6.71875 1.40625 -8.125 C 1.40625 -10.957031 2.066406 -13.0625 3.390625 -14.4375 C 4.722656 -15.820312 6.679688 -16.515625 9.265625 -16.515625 C 10.472656 -16.515625 11.550781 -16.34375 12.5 -16 C 13.457031 -15.65625 14.269531 -15.132812 14.9375 -14.4375 C 15.613281 -13.75 16.128906 -12.875 16.484375 -11.8125 C 16.847656 -10.757812 17.03125 -9.53125 17.03125 -8.125 Z M 6.078125 -8.125 C 6.078125 -7.0625 6.132812 -6.117188 6.25 -5.296875 C 6.363281 -4.484375 6.546875 -3.800781 6.796875 -3.25 C 7.046875 -2.707031 7.367188 -2.296875 7.765625 -2.015625 C 8.171875 -1.742188 8.664062 -1.609375 9.25 -1.609375 C 9.820312 -1.609375 10.304688 -1.742188 10.703125 -2.015625 C 11.097656 -2.296875 11.421875 -2.707031 11.671875 -3.25 C 11.921875 -3.800781 12.097656 -4.484375 12.203125 -5.296875 C 12.316406 -6.117188 12.375 -7.0625 12.375 -8.125 C 12.375 -9.207031 12.316406 -10.148438 12.203125 -10.953125 C 12.085938 -11.765625 11.90625 -12.4375 11.65625 -12.96875 C 11.40625 -13.507812 11.078125 -13.914062 10.671875 -14.1875 C 10.273438 -14.457031 9.789062 -14.59375 9.21875 -14.59375 C 8.632812 -14.59375 8.140625 -14.457031 7.734375 -14.1875 C 7.335938 -13.914062 7.015625 -13.507812 6.765625 -12.96875 C 6.523438 -12.4375 6.347656 -11.765625 6.234375 -10.953125 C 6.128906 -10.148438 6.078125 -9.207031 6.078125 -8.125 Z M 6.078125 -8.125 "/></g></g></g><g fill="#5f4be2" fill-opacity="1"><g transform="translate(198.716163, 241.98602)"><g><path d="M 10.65625 0 L 0.609375 0 L 0.609375 -1.609375 L 0.6875 -1.609375 C 1.03125 -1.609375 1.34375 -1.628906 1.625 -1.671875 C 1.914062 -1.722656 2.160156 -1.820312 2.359375 -1.96875 C 2.566406 -2.125 2.726562 -2.34375 2.84375 -2.625 C 2.957031 -2.914062 3.015625 -3.296875 3.015625 -3.765625 L 3.015625 -12.484375 C 3.015625 -12.929688 2.960938 -13.285156 2.859375 -13.546875 C 2.753906 -13.816406 2.601562 -14.023438 2.40625 -14.171875 C 2.21875 -14.328125 1.992188 -14.425781 1.734375 -14.46875 C 1.472656 -14.507812 1.175781 -14.53125 0.84375 -14.53125 L 0.75 -14.53125 L 0.75 -16.140625 L 6.828125 -16.140625 L 7.4375 -13.78125 L 7.578125 -13.78125 C 7.773438 -14.226562 7.988281 -14.617188 8.21875 -14.953125 C 8.457031 -15.296875 8.738281 -15.582031 9.0625 -15.8125 C 9.394531 -16.039062 9.785156 -16.207031 10.234375 -16.3125 C 10.679688 -16.425781 11.210938 -16.484375 11.828125 -16.484375 C 13.015625 -16.484375 13.882812 -16.273438 14.4375 -15.859375 C 15 -15.441406 15.28125 -14.835938 15.28125 -14.046875 C 15.28125 -13.128906 14.945312 -12.414062 14.28125 -11.90625 C 13.613281 -11.394531 12.675781 -11.140625 11.46875 -11.140625 C 11.46875 -11.546875 11.441406 -11.90625 11.390625 -12.21875 C 11.347656 -12.539062 11.269531 -12.800781 11.15625 -13 C 11.039062 -13.207031 10.890625 -13.363281 10.703125 -13.46875 C 10.515625 -13.582031 10.273438 -13.640625 9.984375 -13.640625 C 9.640625 -13.640625 9.335938 -13.550781 9.078125 -13.375 C 8.828125 -13.195312 8.613281 -12.96875 8.4375 -12.6875 C 8.257812 -12.40625 8.113281 -12.085938 8 -11.734375 C 7.882812 -11.390625 7.796875 -11.035156 7.734375 -10.671875 C 7.671875 -10.316406 7.628906 -9.976562 7.609375 -9.65625 C 7.585938 -9.332031 7.578125 -9.050781 7.578125 -8.8125 L 7.578125 -3.609375 C 7.578125 -3.171875 7.628906 -2.816406 7.734375 -2.546875 C 7.847656 -2.273438 8 -2.070312 8.1875 -1.9375 C 8.375 -1.800781 8.597656 -1.710938 8.859375 -1.671875 C 9.117188 -1.628906 9.394531 -1.609375 9.6875 -1.609375 L 10.65625 -1.609375 Z M 10.65625 0 "/></g></g></g><g fill="#fe9445" fill-opacity="1"><g transform="translate(214.453115, 241.98602)"><g><path d="M 0.84375 0 L 0.84375 -1.609375 L 2.09375 -1.609375 C 2.320312 -1.609375 2.53125 -1.628906 2.71875 -1.671875 C 2.90625 -1.710938 3.066406 -1.800781 3.203125 -1.9375 C 3.335938 -2.070312 3.441406 -2.265625 3.515625 -2.515625 C 3.597656 -2.773438 3.640625 -3.125 3.640625 -3.5625 L 3.640625 -17.921875 C 3.640625 -18.359375 3.597656 -18.703125 3.515625 -18.953125 C 3.441406 -19.210938 3.335938 -19.410156 3.203125 -19.546875 C 3.066406 -19.679688 2.90625 -19.769531 2.71875 -19.8125 C 2.53125 -19.851562 2.320312 -19.875 2.09375 -19.875 L 0.84375 -19.875 L 0.84375 -21.484375 L 11.21875 -21.484375 L 11.21875 -19.875 L 9.96875 -19.875 C 9.75 -19.875 9.539062 -19.851562 9.34375 -19.8125 C 9.15625 -19.769531 8.992188 -19.679688 8.859375 -19.546875 C 8.722656 -19.410156 8.613281 -19.210938 8.53125 -18.953125 C 8.457031 -18.703125 8.421875 -18.359375 8.421875 -17.921875 L 8.421875 -3.5625 C 8.421875 -3.125 8.457031 -2.773438 8.53125 -2.515625 C 8.613281 -2.265625 8.722656 -2.070312 8.859375 -1.9375 C 8.992188 -1.800781 9.15625 -1.710938 9.34375 -1.671875 C 9.539062 -1.628906 9.75 -1.609375 9.96875 -1.609375 L 11.21875 -1.609375 L 11.21875 0 Z M 0.84375 0 "/></g></g></g><g fill="#fe9445" fill-opacity="1"><g transform="translate(226.512372, 241.98602)"><g><path d="M 12.609375 0 L 12.609375 -9.90625 C 12.609375 -10.550781 12.566406 -11.125 12.484375 -11.625 C 12.398438 -12.132812 12.257812 -12.5625 12.0625 -12.90625 C 11.875 -13.25 11.625 -13.507812 11.3125 -13.6875 C 11.007812 -13.863281 10.640625 -13.953125 10.203125 -13.953125 C 9.703125 -13.953125 9.285156 -13.828125 8.953125 -13.578125 C 8.617188 -13.328125 8.347656 -12.988281 8.140625 -12.5625 C 7.941406 -12.132812 7.796875 -11.640625 7.703125 -11.078125 C 7.617188 -10.515625 7.578125 -9.921875 7.578125 -9.296875 L 7.578125 -3.5625 C 7.578125 -3.132812 7.628906 -2.789062 7.734375 -2.53125 C 7.835938 -2.28125 7.984375 -2.082031 8.171875 -1.9375 C 8.359375 -1.800781 8.582031 -1.710938 8.84375 -1.671875 C 9.113281 -1.628906 9.414062 -1.609375 9.75 -1.609375 L 9.84375 -1.609375 L 9.84375 0 L 0.609375 0 L 0.609375 -1.609375 L 0.65625 -1.609375 C 1 -1.609375 1.3125 -1.628906 1.59375 -1.671875 C 1.882812 -1.710938 2.132812 -1.804688 2.34375 -1.953125 C 2.550781 -2.097656 2.710938 -2.304688 2.828125 -2.578125 C 2.953125 -2.859375 3.015625 -3.222656 3.015625 -3.671875 L 3.015625 -12.578125 C 3.015625 -12.992188 2.960938 -13.328125 2.859375 -13.578125 C 2.753906 -13.835938 2.601562 -14.039062 2.40625 -14.1875 C 2.21875 -14.332031 1.992188 -14.425781 1.734375 -14.46875 C 1.472656 -14.507812 1.175781 -14.53125 0.84375 -14.53125 L 0.75 -14.53125 L 0.75 -16.140625 L 7.0625 -16.140625 L 7.46875 -13.984375 L 7.609375 -13.984375 C 7.910156 -14.554688 8.226562 -15.007812 8.5625 -15.34375 C 8.90625 -15.675781 9.269531 -15.929688 9.65625 -16.109375 C 10.039062 -16.285156 10.441406 -16.394531 10.859375 -16.4375 C 11.285156 -16.488281 11.734375 -16.515625 12.203125 -16.515625 C 12.984375 -16.515625 13.679688 -16.398438 14.296875 -16.171875 C 14.910156 -15.953125 15.429688 -15.609375 15.859375 -15.140625 C 16.285156 -14.671875 16.609375 -14.066406 16.828125 -13.328125 C 17.054688 -12.597656 17.171875 -11.726562 17.171875 -10.71875 L 17.171875 -3.734375 C 17.171875 -3.265625 17.210938 -2.890625 17.296875 -2.609375 C 17.378906 -2.328125 17.503906 -2.113281 17.671875 -1.96875 C 17.835938 -1.820312 18.046875 -1.722656 18.296875 -1.671875 C 18.554688 -1.628906 18.859375 -1.609375 19.203125 -1.609375 L 19.296875 -1.609375 L 19.296875 0 Z M 12.609375 0 "/></g></g></g></svg>