<svg xmlns="http://www.w3.org/2000/svg" xmlns:xlink="http://www.w3.org/1999/xlink" width="500" zoomAndPan="magnify" viewBox="0 0 375 374.999991" height="500" preserveAspectRatio="xMidYMid meet" version="1.0"><defs><g/><clipPath id="5c288f457d"><path d="M 58.828125 127.195312 L 152.71875 127.195312 L 152.71875 221.089844 L 58.828125 221.089844 Z M 58.828125 127.195312 " clip-rule="nonzero"/></clipPath><clipPath id="ab61954567"><path d="M 105.773438 127.195312 C 79.847656 127.195312 58.828125 148.214844 58.828125 174.140625 C 58.828125 200.070312 79.847656 221.089844 105.773438 221.089844 C 131.703125 221.089844 152.71875 200.070312 152.71875 174.140625 C 152.71875 148.214844 131.703125 127.195312 105.773438 127.195312 Z M 105.773438 127.195312 " clip-rule="nonzero"/></clipPath><clipPath id="be30a89f34"><path d="M 71.703125 194 L 113 194 L 113 238 L 71.703125 238 Z M 71.703125 194 " clip-rule="nonzero"/></clipPath><clipPath id="51f282c065"><path d="M 74 136.929688 L 139 136.929688 L 139 218 L 74 218 Z M 74 136.929688 " clip-rule="nonzero"/></clipPath><clipPath id="5c7dcce0c2"><path d="M 97 136.929688 L 139 136.929688 L 139 171 L 97 171 Z M 97 136.929688 " clip-rule="nonzero"/></clipPath><clipPath id="a14da78c3e"><path d="M 73 234 L 139 234 L 139 239.679688 L 73 239.679688 Z M 73 234 " clip-rule="nonzero"/></clipPath></defs><g clip-path="url(#5c288f457d)"><g clip-path="url(#ab61954567)"><path fill="#5f4be2" d="M 58.828125 127.195312 L 152.71875 127.195312 L 152.71875 221.089844 L 58.828125 221.089844 Z M 58.828125 127.195312 " fill-opacity="1" fill-rule="nonzero"/></g></g><path fill="#fff6eb" d="M 86.824219 234.976562 C 86.417969 234.976562 86.007812 234.886719 85.625 234.703125 L 76.386719 230.308594 C 75.316406 229.800781 74.683594 228.671875 74.808594 227.492188 L 77.75 199.453125 C 77.84375 198.550781 78.371094 197.75 79.164062 197.308594 C 79.585938 197.070312 80.058594 196.949219 80.53125 196.949219 C 80.941406 196.949219 81.351562 197.039062 81.730469 197.222656 L 107.925781 209.683594 C 108.746094 210.074219 109.324219 210.839844 109.480469 211.734375 C 109.636719 212.628906 109.347656 213.542969 108.707031 214.183594 L 88.804688 234.152344 C 88.269531 234.691406 87.550781 234.976562 86.824219 234.976562 Z M 86.824219 234.976562 " fill-opacity="1" fill-rule="nonzero"/><g clip-path="url(#be30a89f34)"><path fill="#5f4be2" d="M 80.53125 199.746094 L 106.726562 212.210938 L 86.824219 232.179688 L 77.589844 227.785156 L 80.53125 199.746094 M 80.53125 194.15625 C 79.585938 194.15625 78.640625 194.394531 77.792969 194.867188 C 76.210938 195.757812 75.15625 197.359375 74.96875 199.164062 L 72.027344 227.199219 C 71.777344 229.558594 73.042969 231.816406 75.183594 232.835938 L 84.421875 237.230469 C 85.191406 237.59375 86.011719 237.773438 86.824219 237.773438 C 88.277344 237.773438 89.714844 237.203125 90.785156 236.125 L 110.6875 216.160156 C 111.96875 214.871094 112.542969 213.042969 112.234375 211.257812 C 111.925781 209.46875 110.765625 207.941406 109.128906 207.160156 L 82.933594 194.695312 C 82.171875 194.335938 81.351562 194.15625 80.53125 194.15625 Z M 80.53125 194.15625 " fill-opacity="1" fill-rule="nonzero"/></g><path fill="#fff6eb" d="M 106.726562 215.007812 C 106.320312 215.007812 105.914062 214.921875 105.523438 214.738281 L 79.328125 202.269531 C 77.964844 201.621094 77.363281 200.011719 77.964844 198.625 L 78.003906 198.539062 C 78.0625 198.398438 78.125 198.257812 78.191406 198.117188 L 104.171875 143.515625 C 104.84375 142.105469 106.683594 139.734375 111.460938 139.734375 C 119.101562 139.734375 131.039062 145.835938 134.679688 151.601562 C 136.5625 154.585938 136.132812 156.941406 135.441406 158.394531 L 109.464844 212.996094 C 109.394531 213.136719 109.324219 213.277344 109.25 213.414062 L 109.210938 213.496094 C 108.714844 214.453125 107.738281 215.007812 106.726562 215.007812 Z M 106.726562 215.007812 " fill-opacity="1" fill-rule="nonzero"/><g clip-path="url(#51f282c065)"><path fill="#5f4be2" d="M 111.464844 142.53125 C 119.929688 142.53125 135.632812 151.488281 132.917969 157.191406 L 106.9375 211.792969 C 106.871094 211.9375 106.796875 212.074219 106.726562 212.210938 L 80.527344 199.746094 C 80.589844 199.601562 80.652344 199.460938 80.71875 199.316406 L 106.699219 144.714844 C 107.429688 143.179688 109.183594 142.53125 111.464844 142.53125 M 111.464844 136.941406 C 105.148438 136.941406 102.601562 140.308594 101.648438 142.3125 L 75.667969 196.914062 C 75.589844 197.082031 75.511719 197.253906 75.4375 197.425781 L 75.402344 197.503906 C 74.195312 200.273438 75.398438 203.5 78.125 204.796875 L 104.324219 217.261719 C 105.097656 217.632812 105.917969 217.804688 106.722656 217.804688 C 108.753906 217.804688 110.707031 216.695312 111.695312 214.777344 L 111.734375 214.699219 C 111.824219 214.535156 111.90625 214.367188 111.988281 214.199219 L 137.96875 159.597656 C 138.78125 157.886719 139.742188 154.382812 137.046875 150.109375 C 132.847656 143.464844 120.175781 136.941406 111.464844 136.941406 Z M 111.464844 136.941406 " fill-opacity="1" fill-rule="nonzero"/></g><path fill="#fff6eb" d="M 129.320312 167.550781 C 128.910156 167.550781 128.5 167.457031 128.121094 167.277344 L 101.898438 154.800781 C 100.503906 154.140625 99.914062 152.46875 100.574219 151.074219 L 104.171875 143.515625 C 104.84375 142.105469 106.683594 139.734375 111.464844 139.734375 C 119.105469 139.734375 131.039062 145.835938 134.679688 151.601562 C 136.5625 154.585938 136.136719 156.941406 135.445312 158.394531 L 131.847656 165.953125 C 131.527344 166.625 130.957031 167.140625 130.257812 167.386719 C 129.953125 167.496094 129.636719 167.550781 129.320312 167.550781 Z M 129.320312 167.550781 " fill-opacity="1" fill-rule="nonzero"/><g clip-path="url(#5c7dcce0c2)"><path fill="#5f4be2" d="M 111.464844 142.53125 C 119.929688 142.53125 135.632812 151.488281 132.917969 157.191406 L 129.320312 164.753906 L 103.101562 152.277344 L 106.699219 144.714844 C 107.429688 143.179688 109.183594 142.53125 111.464844 142.53125 M 111.464844 136.941406 C 111.464844 136.941406 111.464844 136.941406 111.460938 136.941406 C 105.148438 136.941406 102.601562 140.308594 101.648438 142.3125 L 98.050781 149.875 C 96.722656 152.664062 97.910156 156 100.699219 157.328125 L 126.917969 169.804688 C 127.695312 170.171875 128.511719 170.347656 129.316406 170.347656 C 131.410156 170.347656 133.414062 169.167969 134.371094 167.15625 L 137.96875 159.597656 C 138.78125 157.886719 139.742188 154.382812 137.046875 150.109375 C 132.847656 143.464844 120.175781 136.941406 111.464844 136.941406 Z M 111.464844 136.941406 " fill-opacity="1" fill-rule="nonzero"/></g><g clip-path="url(#a14da78c3e)"><path fill="#5f4be2" d="M 135.703125 239.898438 L 75.839844 239.898438 C 74.292969 239.898438 73.042969 238.644531 73.042969 237.101562 C 73.042969 235.554688 74.292969 234.304688 75.839844 234.304688 L 135.703125 234.304688 C 137.246094 234.304688 138.5 235.554688 138.5 237.101562 C 138.5 238.644531 137.246094 239.898438 135.703125 239.898438 Z M 135.703125 239.898438 " fill-opacity="1" fill-rule="nonzero"/></g><path fill="#fff6eb" d="M 99.988281 199.460938 C 99.265625 199.460938 98.582031 199.308594 97.953125 199.011719 C 93.234375 196.78125 94.4375 188.773438 97.71875 181.824219 C 100.15625 176.664062 104.601562 170.640625 109.109375 170.640625 C 109.828125 170.640625 110.511719 170.792969 111.144531 171.089844 C 115.859375 173.316406 114.65625 181.328125 111.375 188.277344 C 108.9375 193.433594 104.492188 199.460938 99.988281 199.460938 Z M 99.988281 199.460938 " fill-opacity="1" fill-rule="nonzero"/><path fill="#5f4be2" d="M 109.109375 173.4375 C 109.410156 173.4375 109.691406 173.496094 109.949219 173.617188 C 112.324219 174.738281 111.828125 180.765625 108.847656 187.082031 C 106.1875 192.707031 102.449219 196.664062 99.988281 196.664062 C 99.6875 196.664062 99.40625 196.605469 99.144531 196.480469 C 96.773438 195.359375 97.265625 189.332031 100.25 183.019531 C 102.90625 177.390625 106.644531 173.4375 109.109375 173.4375 M 109.109375 167.84375 C 109.109375 167.84375 109.109375 167.84375 109.105469 167.84375 C 101.800781 167.84375 96.609375 177.628906 95.191406 180.628906 C 93.46875 184.277344 92.375 188.042969 92.113281 191.242188 C 91.558594 198.03125 94.785156 200.605469 96.757812 201.539062 C 97.765625 202.015625 98.851562 202.253906 99.988281 202.253906 C 107.292969 202.253906 112.484375 192.46875 113.902344 189.46875 C 115.625 185.824219 116.71875 182.054688 116.980469 178.859375 C 117.535156 172.070312 114.308594 169.492188 112.335938 168.5625 C 111.332031 168.085938 110.246094 167.84375 109.109375 167.84375 Z M 109.109375 167.84375 " fill-opacity="1" fill-rule="nonzero"/><g fill="#5f4be2" fill-opacity="1"><g transform="translate(162.971539, 196.999734)"><g><path d="M 17.21875 -5.015625 C 17.21875 -4.410156 17.269531 -3.925781 17.375 -3.5625 C 17.488281 -3.207031 17.644531 -2.929688 17.84375 -2.734375 C 18.050781 -2.535156 18.285156 -2.40625 18.546875 -2.34375 C 18.804688 -2.289062 19.085938 -2.265625 19.390625 -2.265625 L 21.171875 -2.265625 L 21.171875 0 L 6.53125 0 L 6.53125 -2.265625 L 8.3125 -2.265625 C 8.625 -2.265625 8.910156 -2.289062 9.171875 -2.34375 C 9.441406 -2.40625 9.671875 -2.535156 9.859375 -2.734375 C 10.054688 -2.929688 10.207031 -3.207031 10.3125 -3.5625 C 10.425781 -3.925781 10.484375 -4.410156 10.484375 -5.015625 L 10.484375 -27.703125 L 7.09375 -27.703125 C 6.457031 -27.703125 5.921875 -27.632812 5.484375 -27.5 C 5.054688 -27.363281 4.707031 -27.164062 4.4375 -26.90625 C 4.175781 -26.65625 3.976562 -26.34375 3.84375 -25.96875 C 3.707031 -25.59375 3.613281 -25.171875 3.5625 -24.703125 L 3.28125 -22.0625 L 0.421875 -22.0625 L 0.640625 -30.296875 L 27.078125 -30.296875 L 27.296875 -22.0625 L 24.453125 -22.0625 L 24.140625 -24.703125 C 24.085938 -25.171875 23.992188 -25.59375 23.859375 -25.96875 C 23.722656 -26.34375 23.519531 -26.65625 23.25 -26.90625 C 22.988281 -27.164062 22.644531 -27.363281 22.21875 -27.5 C 21.789062 -27.632812 21.257812 -27.703125 20.625 -27.703125 L 17.21875 -27.703125 Z M 17.21875 -5.015625 "/></g></g></g><g fill="#5f4be2" fill-opacity="1"><g transform="translate(190.673553, 196.999734)"><g><path d="M 18.796875 0 L 17.859375 -3 L 17.65625 -3 C 17.226562 -2.269531 16.765625 -1.679688 16.265625 -1.234375 C 15.765625 -0.785156 15.234375 -0.4375 14.671875 -0.1875 C 14.109375 0.0507812 13.507812 0.210938 12.875 0.296875 C 12.25 0.378906 11.601562 0.421875 10.9375 0.421875 C 8.726562 0.421875 7.03125 -0.257812 5.84375 -1.625 C 4.664062 -3 4.078125 -5.117188 4.078125 -7.984375 L 4.078125 -17.484375 C 4.078125 -18.109375 4.019531 -18.613281 3.90625 -19 C 3.800781 -19.382812 3.628906 -19.6875 3.390625 -19.90625 C 3.160156 -20.132812 2.863281 -20.289062 2.5 -20.375 C 2.132812 -20.457031 1.695312 -20.5 1.1875 -20.5 L 1.09375 -20.5 L 1.09375 -22.75 L 10.53125 -22.75 L 10.53125 -9.15625 C 10.53125 -8.25 10.582031 -7.425781 10.6875 -6.6875 C 10.789062 -5.957031 10.960938 -5.332031 11.203125 -4.8125 C 11.453125 -4.300781 11.785156 -3.898438 12.203125 -3.609375 C 12.617188 -3.328125 13.140625 -3.1875 13.765625 -3.1875 C 14.441406 -3.1875 15.023438 -3.332031 15.515625 -3.625 C 16.003906 -3.925781 16.398438 -4.359375 16.703125 -4.921875 C 17.015625 -5.484375 17.242188 -6.160156 17.390625 -6.953125 C 17.535156 -7.742188 17.609375 -8.640625 17.609375 -9.640625 L 17.609375 -17.78125 C 17.609375 -18.40625 17.523438 -18.894531 17.359375 -19.25 C 17.191406 -19.601562 16.96875 -19.875 16.6875 -20.0625 C 16.414062 -20.25 16.09375 -20.367188 15.71875 -20.421875 C 15.351562 -20.472656 14.960938 -20.5 14.546875 -20.5 L 14.421875 -20.5 L 14.421875 -22.75 L 24.0625 -22.75 L 24.0625 -4.9375 C 24.0625 -4.3125 24.132812 -3.820312 24.28125 -3.46875 C 24.425781 -3.113281 24.617188 -2.847656 24.859375 -2.671875 C 25.109375 -2.492188 25.40625 -2.378906 25.75 -2.328125 C 26.101562 -2.285156 26.484375 -2.265625 26.890625 -2.265625 L 27.25 -2.265625 L 27.25 0 Z M 18.796875 0 "/></g></g></g><g fill="#5f4be2" fill-opacity="1"><g transform="translate(218.976426, 196.999734)"><g><path d="M 13.328125 -3 C 13.878906 -3 14.40625 -3.035156 14.90625 -3.109375 C 15.414062 -3.191406 15.890625 -3.285156 16.328125 -3.390625 L 16.328125 -0.640625 C 16.109375 -0.535156 15.804688 -0.421875 15.421875 -0.296875 C 15.046875 -0.171875 14.601562 -0.0546875 14.09375 0.046875 C 13.59375 0.148438 13.023438 0.238281 12.390625 0.3125 C 11.753906 0.382812 11.0625 0.421875 10.3125 0.421875 C 9.363281 0.421875 8.5 0.304688 7.71875 0.078125 C 6.945312 -0.148438 6.289062 -0.53125 5.75 -1.0625 C 5.21875 -1.59375 4.804688 -2.28125 4.515625 -3.125 C 4.222656 -3.976562 4.078125 -5.03125 4.078125 -6.28125 L 4.078125 -19.84375 L 0.890625 -19.84375 L 0.890625 -22.03125 C 1.804688 -22.03125 2.617188 -22.207031 3.328125 -22.5625 C 4.046875 -22.925781 4.625 -23.34375 5.0625 -23.8125 C 5.925781 -24.71875 6.570312 -26.117188 7 -28.015625 L 10.53125 -28.015625 L 10.53125 -22.75 L 15.953125 -22.75 L 15.953125 -19.84375 L 10.53125 -19.84375 L 10.53125 -6.71875 C 10.53125 -5.425781 10.742188 -4.484375 11.171875 -3.890625 C 11.609375 -3.296875 12.328125 -3 13.328125 -3 Z M 13.328125 -3 "/></g></g></g><g fill="#5f4be2" fill-opacity="1"><g transform="translate(236.15292, 196.999734)"><g><path d="M 24.015625 -11.453125 C 24.015625 -7.460938 23.078125 -4.484375 21.203125 -2.515625 C 19.335938 -0.554688 16.585938 0.421875 12.953125 0.421875 C 11.253906 0.421875 9.726562 0.175781 8.375 -0.3125 C 7.019531 -0.8125 5.867188 -1.550781 4.921875 -2.53125 C 3.972656 -3.507812 3.242188 -4.742188 2.734375 -6.234375 C 2.234375 -7.722656 1.984375 -9.460938 1.984375 -11.453125 C 1.984375 -15.453125 2.921875 -18.425781 4.796875 -20.375 C 6.671875 -22.320312 9.429688 -23.296875 13.078125 -23.296875 C 14.773438 -23.296875 16.296875 -23.050781 17.640625 -22.5625 C 18.992188 -22.082031 20.140625 -21.347656 21.078125 -20.359375 C 22.023438 -19.378906 22.75 -18.144531 23.25 -16.65625 C 23.757812 -15.175781 24.015625 -13.441406 24.015625 -11.453125 Z M 8.578125 -11.453125 C 8.578125 -9.953125 8.65625 -8.628906 8.8125 -7.484375 C 8.976562 -6.335938 9.234375 -5.375 9.578125 -4.59375 C 9.929688 -3.820312 10.390625 -3.238281 10.953125 -2.84375 C 11.523438 -2.457031 12.21875 -2.265625 13.03125 -2.265625 C 13.84375 -2.265625 14.53125 -2.457031 15.09375 -2.84375 C 15.65625 -3.238281 16.109375 -3.820312 16.453125 -4.59375 C 16.804688 -5.375 17.0625 -6.335938 17.21875 -7.484375 C 17.375 -8.628906 17.453125 -9.953125 17.453125 -11.453125 C 17.453125 -12.972656 17.367188 -14.300781 17.203125 -15.4375 C 17.046875 -16.582031 16.789062 -17.535156 16.4375 -18.296875 C 16.09375 -19.054688 15.632812 -19.625 15.0625 -20 C 14.5 -20.382812 13.8125 -20.578125 13 -20.578125 C 12.175781 -20.578125 11.484375 -20.382812 10.921875 -20 C 10.359375 -19.625 9.898438 -19.054688 9.546875 -18.296875 C 9.203125 -17.535156 8.953125 -16.582031 8.796875 -15.4375 C 8.648438 -14.300781 8.578125 -12.972656 8.578125 -11.453125 Z M 8.578125 -11.453125 "/></g></g></g><g fill="#5f4be2" fill-opacity="1"><g transform="translate(262.155932, 196.999734)"><g><path d="M 15.015625 0 L 0.84375 0 L 0.84375 -2.265625 L 0.96875 -2.265625 C 1.457031 -2.265625 1.898438 -2.296875 2.296875 -2.359375 C 2.703125 -2.429688 3.046875 -2.570312 3.328125 -2.78125 C 3.617188 -3 3.84375 -3.304688 4 -3.703125 C 4.164062 -4.109375 4.25 -4.644531 4.25 -5.3125 L 4.25 -17.609375 C 4.25 -18.234375 4.175781 -18.734375 4.03125 -19.109375 C 3.882812 -19.492188 3.675781 -19.789062 3.40625 -20 C 3.132812 -20.207031 2.8125 -20.34375 2.4375 -20.40625 C 2.070312 -20.46875 1.65625 -20.5 1.1875 -20.5 L 1.0625 -20.5 L 1.0625 -22.75 L 9.640625 -22.75 L 10.484375 -19.4375 L 10.6875 -19.4375 C 10.96875 -20.070312 11.269531 -20.625 11.59375 -21.09375 C 11.925781 -21.570312 12.320312 -21.96875 12.78125 -22.28125 C 13.25 -22.601562 13.796875 -22.84375 14.421875 -23 C 15.054688 -23.164062 15.8125 -23.25 16.6875 -23.25 C 18.351562 -23.25 19.578125 -22.953125 20.359375 -22.359375 C 21.148438 -21.773438 21.546875 -20.925781 21.546875 -19.8125 C 21.546875 -18.507812 21.078125 -17.5 20.140625 -16.78125 C 19.203125 -16.0625 17.875 -15.703125 16.15625 -15.703125 C 16.15625 -16.285156 16.125 -16.796875 16.0625 -17.234375 C 16 -17.679688 15.890625 -18.050781 15.734375 -18.34375 C 15.578125 -18.632812 15.363281 -18.851562 15.09375 -19 C 14.820312 -19.15625 14.488281 -19.234375 14.09375 -19.234375 C 13.59375 -19.234375 13.160156 -19.109375 12.796875 -18.859375 C 12.441406 -18.609375 12.140625 -18.285156 11.890625 -17.890625 C 11.640625 -17.492188 11.4375 -17.046875 11.28125 -16.546875 C 11.125 -16.054688 11 -15.554688 10.90625 -15.046875 C 10.820312 -14.546875 10.765625 -14.066406 10.734375 -13.609375 C 10.703125 -13.160156 10.6875 -12.769531 10.6875 -12.4375 L 10.6875 -5.09375 C 10.6875 -4.476562 10.757812 -3.976562 10.90625 -3.59375 C 11.0625 -3.21875 11.269531 -2.929688 11.53125 -2.734375 C 11.800781 -2.535156 12.117188 -2.40625 12.484375 -2.34375 C 12.847656 -2.289062 13.238281 -2.265625 13.65625 -2.265625 L 15.015625 -2.265625 Z M 15.015625 0 "/></g></g></g><g fill="#fe9445" fill-opacity="1"><g transform="translate(284.354348, 196.999734)"><g><path d="M 1.1875 0 L 1.1875 -2.265625 L 2.96875 -2.265625 C 3.28125 -2.265625 3.566406 -2.289062 3.828125 -2.34375 C 4.097656 -2.40625 4.328125 -2.535156 4.515625 -2.734375 C 4.710938 -2.929688 4.863281 -3.207031 4.96875 -3.5625 C 5.082031 -3.925781 5.140625 -4.410156 5.140625 -5.015625 L 5.140625 -25.28125 C 5.140625 -25.882812 5.082031 -26.363281 4.96875 -26.71875 C 4.863281 -27.082031 4.710938 -27.359375 4.515625 -27.546875 C 4.328125 -27.742188 4.097656 -27.875 3.828125 -27.9375 C 3.566406 -28 3.28125 -28.03125 2.96875 -28.03125 L 1.1875 -28.03125 L 1.1875 -30.296875 L 15.828125 -30.296875 L 15.828125 -28.03125 L 14.046875 -28.03125 C 13.742188 -28.03125 13.457031 -28 13.1875 -27.9375 C 12.914062 -27.875 12.679688 -27.742188 12.484375 -27.546875 C 12.296875 -27.359375 12.144531 -27.082031 12.03125 -26.71875 C 11.925781 -26.363281 11.875 -25.882812 11.875 -25.28125 L 11.875 -5.015625 C 11.875 -4.410156 11.925781 -3.925781 12.03125 -3.5625 C 12.144531 -3.207031 12.296875 -2.929688 12.484375 -2.734375 C 12.679688 -2.535156 12.914062 -2.40625 13.1875 -2.34375 C 13.457031 -2.289062 13.742188 -2.265625 14.046875 -2.265625 L 15.828125 -2.265625 L 15.828125 0 Z M 1.1875 0 "/></g></g></g><g fill="#fe9445" fill-opacity="1"><g transform="translate(301.365085, 196.999734)"><g><path d="M 17.78125 0 L 17.78125 -13.96875 C 17.78125 -14.875 17.71875 -15.679688 17.59375 -16.390625 C 17.476562 -17.109375 17.285156 -17.707031 17.015625 -18.1875 C 16.753906 -18.675781 16.40625 -19.046875 15.96875 -19.296875 C 15.53125 -19.554688 15 -19.6875 14.375 -19.6875 C 13.675781 -19.6875 13.09375 -19.503906 12.625 -19.140625 C 12.15625 -18.785156 11.773438 -18.304688 11.484375 -17.703125 C 11.203125 -17.109375 11 -16.410156 10.875 -15.609375 C 10.75 -14.816406 10.6875 -13.984375 10.6875 -13.109375 L 10.6875 -5.015625 C 10.6875 -4.421875 10.757812 -3.941406 10.90625 -3.578125 C 11.050781 -3.222656 11.253906 -2.941406 11.515625 -2.734375 C 11.785156 -2.535156 12.109375 -2.40625 12.484375 -2.34375 C 12.859375 -2.289062 13.285156 -2.265625 13.765625 -2.265625 L 13.890625 -2.265625 L 13.890625 0 L 0.84375 0 L 0.84375 -2.265625 L 0.9375 -2.265625 C 1.414062 -2.265625 1.851562 -2.289062 2.25 -2.34375 C 2.65625 -2.40625 3.003906 -2.539062 3.296875 -2.75 C 3.597656 -2.957031 3.832031 -3.253906 4 -3.640625 C 4.164062 -4.035156 4.25 -4.550781 4.25 -5.1875 L 4.25 -17.734375 C 4.25 -18.328125 4.175781 -18.800781 4.03125 -19.15625 C 3.882812 -19.519531 3.675781 -19.800781 3.40625 -20 C 3.132812 -20.207031 2.8125 -20.34375 2.4375 -20.40625 C 2.070312 -20.46875 1.65625 -20.5 1.1875 -20.5 L 1.0625 -20.5 L 1.0625 -22.75 L 9.96875 -22.75 L 10.53125 -19.734375 L 10.734375 -19.734375 C 11.160156 -20.523438 11.613281 -21.15625 12.09375 -21.625 C 12.570312 -22.101562 13.078125 -22.460938 13.609375 -22.703125 C 14.148438 -22.953125 14.71875 -23.113281 15.3125 -23.1875 C 15.914062 -23.257812 16.550781 -23.296875 17.21875 -23.296875 C 18.3125 -23.296875 19.289062 -23.132812 20.15625 -22.8125 C 21.03125 -22.5 21.765625 -22.007812 22.359375 -21.34375 C 22.960938 -20.675781 23.421875 -19.828125 23.734375 -18.796875 C 24.054688 -17.773438 24.21875 -16.546875 24.21875 -15.109375 L 24.21875 -5.265625 C 24.21875 -4.597656 24.273438 -4.066406 24.390625 -3.671875 C 24.515625 -3.285156 24.691406 -2.988281 24.921875 -2.78125 C 25.160156 -2.570312 25.457031 -2.429688 25.8125 -2.359375 C 26.175781 -2.296875 26.597656 -2.265625 27.078125 -2.265625 L 27.203125 -2.265625 L 27.203125 0 Z M 17.78125 0 "/></g></g></g></svg>