<svg xmlns="http://www.w3.org/2000/svg" xmlns:xlink="http://www.w3.org/1999/xlink" width="1920" zoomAndPan="magnify" viewBox="0 0 1440 809.999993" height="1080" preserveAspectRatio="xMidYMid meet" version="1.0"><defs><g/><clipPath id="af967812f3"><path d="M 96.355469 215.097656 L 376.679688 215.097656 L 376.679688 495.421875 L 96.355469 495.421875 Z M 96.355469 215.097656 " clip-rule="nonzero"/></clipPath><clipPath id="c25c106917"><path d="M 236.519531 215.097656 C 159.109375 215.097656 96.355469 277.851562 96.355469 355.261719 C 96.355469 432.671875 159.109375 495.421875 236.519531 495.421875 C 313.929688 495.421875 376.679688 432.671875 376.679688 355.261719 C 376.679688 277.851562 313.929688 215.097656 236.519531 215.097656 Z M 236.519531 215.097656 " clip-rule="nonzero"/></clipPath><clipPath id="0cd2f17314"><path d="M 144 244.160156 L 336 244.160156 L 336 486 L 144 486 Z M 144 244.160156 " clip-rule="nonzero"/></clipPath><clipPath id="514efbb231"><path d="M 211 244.160156 L 336 244.160156 L 336 344 L 211 344 Z M 211 244.160156 " clip-rule="nonzero"/></clipPath><clipPath id="73427bf98d"><path d="M 138 534 L 335 534 L 335 551.164062 L 138 551.164062 Z M 138 534 " clip-rule="nonzero"/></clipPath></defs><g clip-path="url(#af967812f3)"><g clip-path="url(#c25c106917)"><path fill="#5f4be2" d="M 96.355469 215.097656 L 376.679688 215.097656 L 376.679688 495.421875 L 96.355469 495.421875 Z M 96.355469 215.097656 " fill-opacity="1" fill-rule="nonzero"/></g></g><path fill="#fff6eb" d="M 179.945312 536.902344 C 178.730469 536.902344 177.507812 536.640625 176.359375 536.09375 L 148.78125 522.96875 C 145.585938 521.449219 143.695312 518.078125 144.066406 514.558594 L 152.847656 430.847656 C 153.132812 428.152344 154.707031 425.761719 157.070312 424.4375 C 158.335938 423.726562 159.742188 423.371094 161.152344 423.371094 C 162.375 423.371094 163.601562 423.636719 164.738281 424.179688 L 242.949219 461.394531 C 245.398438 462.558594 247.125 464.839844 247.589844 467.507812 C 248.050781 470.175781 247.1875 472.90625 245.277344 474.828125 L 185.863281 534.449219 C 184.257812 536.054688 182.121094 536.902344 179.945312 536.902344 Z M 179.945312 536.902344 " fill-opacity="1" fill-rule="nonzero"/><path fill="#5f4be2" d="M 161.152344 431.71875 L 239.363281 468.933594 L 179.949219 528.554688 L 152.367188 515.429688 L 161.152344 431.71875 M 161.152344 415.019531 C 158.332031 415.019531 155.515625 415.734375 152.984375 417.15625 C 148.257812 419.804688 145.109375 424.585938 144.542969 429.976562 L 135.757812 513.6875 C 135.019531 520.726562 138.800781 527.46875 145.191406 530.507812 L 172.773438 543.632812 C 175.0625 544.722656 177.511719 545.253906 179.941406 545.253906 C 184.289062 545.253906 188.570312 543.558594 191.773438 540.339844 L 251.1875 480.71875 C 255.015625 476.878906 256.738281 471.421875 255.816406 466.082031 C 254.890625 460.742188 251.429688 456.183594 246.535156 453.855469 L 168.324219 416.640625 C 166.054688 415.558594 163.601562 415.019531 161.152344 415.019531 Z M 161.152344 415.019531 " fill-opacity="1" fill-rule="nonzero"/><path fill="#fff6eb" d="M 239.363281 477.289062 C 238.160156 477.289062 236.9375 477.023438 235.78125 476.476562 L 157.558594 439.257812 C 153.492188 437.320312 151.691406 432.503906 153.496094 428.375 L 153.605469 428.117188 C 153.789062 427.691406 153.976562 427.269531 154.171875 426.851562 L 231.742188 263.824219 C 233.75 259.613281 239.242188 252.542969 253.507812 252.542969 C 276.320312 252.542969 311.953125 270.753906 322.828125 287.972656 C 328.453125 296.875 327.171875 303.914062 325.109375 308.25 L 247.539062 471.273438 C 247.339844 471.695312 247.125 472.113281 246.90625 472.527344 L 246.785156 472.769531 C 245.308594 475.632812 242.390625 477.289062 239.363281 477.289062 Z M 239.363281 477.289062 " fill-opacity="1" fill-rule="nonzero"/><g clip-path="url(#0cd2f17314)"><path fill="#5f4be2" d="M 253.511719 260.890625 C 278.792969 260.890625 325.675781 287.628906 317.570312 304.664062 L 240.003906 467.6875 C 239.800781 468.113281 239.582031 468.523438 239.371094 468.933594 L 161.148438 431.714844 C 161.332031 431.289062 161.515625 430.863281 161.714844 430.4375 L 239.285156 267.414062 C 241.46875 262.828125 246.707031 260.890625 253.511719 260.890625 M 253.511719 244.195312 C 234.65625 244.195312 227.058594 254.246094 224.207031 260.238281 L 146.636719 423.265625 C 146.394531 423.765625 146.171875 424.277344 145.953125 424.785156 L 145.847656 425.027344 C 142.234375 433.285156 145.832031 442.921875 153.972656 446.796875 L 232.195312 484.015625 C 234.507812 485.117188 236.949219 485.640625 239.359375 485.640625 C 245.417969 485.640625 251.25 482.328125 254.207031 476.597656 L 254.324219 476.367188 C 254.582031 475.875 254.835938 475.375 255.078125 474.867188 L 332.652344 311.839844 C 335.078125 306.738281 337.949219 296.273438 329.890625 283.515625 C 317.355469 263.671875 279.523438 244.195312 253.511719 244.195312 Z M 253.511719 244.195312 " fill-opacity="1" fill-rule="nonzero"/></g><path fill="#fff6eb" d="M 306.832031 335.585938 C 305.601562 335.585938 304.375 335.316406 303.242188 334.777344 L 224.957031 297.527344 C 220.792969 295.546875 219.023438 290.5625 221.003906 286.398438 L 231.746094 263.824219 C 233.75 259.613281 239.242188 252.542969 253.511719 252.542969 C 276.324219 252.542969 311.953125 270.753906 322.832031 287.972656 C 328.453125 296.875 327.171875 303.914062 325.109375 308.25 L 314.367188 330.824219 C 313.417969 332.824219 311.710938 334.363281 309.625 335.105469 C 308.71875 335.425781 307.773438 335.585938 306.832031 335.585938 Z M 306.832031 335.585938 " fill-opacity="1" fill-rule="nonzero"/><g clip-path="url(#514efbb231)"><path fill="#5f4be2" d="M 253.511719 260.890625 C 278.792969 260.890625 325.675781 287.628906 317.570312 304.664062 L 306.832031 327.238281 L 228.542969 289.988281 L 239.285156 267.414062 C 241.464844 262.828125 246.707031 260.890625 253.511719 260.890625 M 253.515625 244.195312 C 253.515625 244.195312 253.511719 244.195312 253.507812 244.195312 C 234.65625 244.195312 227.054688 254.246094 224.207031 260.238281 L 213.464844 282.8125 C 209.503906 291.140625 213.039062 301.105469 221.367188 305.066406 L 299.65625 342.316406 C 301.972656 343.417969 304.414062 343.941406 306.820312 343.941406 C 313.0625 343.941406 319.050781 340.425781 321.910156 334.414062 L 332.652344 311.839844 C 335.078125 306.734375 337.949219 296.269531 329.890625 283.515625 C 317.359375 263.671875 279.527344 244.195312 253.515625 244.195312 Z M 253.515625 244.195312 " fill-opacity="1" fill-rule="nonzero"/></g><g clip-path="url(#73427bf98d)"><path fill="#5f4be2" d="M 325.886719 551.597656 L 147.140625 551.597656 C 142.53125 551.597656 138.792969 547.859375 138.792969 543.25 C 138.792969 538.636719 142.53125 534.898438 147.140625 534.898438 L 325.886719 534.898438 C 330.496094 534.898438 334.234375 538.636719 334.234375 543.25 C 334.234375 547.859375 330.496094 551.597656 325.886719 551.597656 Z M 325.886719 551.597656 " fill-opacity="1" fill-rule="nonzero"/></g><path fill="#fff6eb" d="M 219.246094 430.859375 C 217.097656 430.859375 215.050781 430.410156 213.167969 429.519531 C 199.089844 422.867188 202.675781 398.953125 212.476562 378.207031 C 219.757812 362.804688 233.027344 344.816406 246.480469 344.816406 C 248.628906 344.816406 250.671875 345.269531 252.554688 346.15625 C 266.636719 352.808594 263.046875 376.722656 253.246094 397.46875 C 245.96875 412.871094 232.695312 430.859375 219.246094 430.859375 Z M 219.246094 430.859375 " fill-opacity="1" fill-rule="nonzero"/><path fill="#5f4be2" d="M 246.480469 353.164062 C 247.375 353.164062 248.21875 353.339844 248.988281 353.707031 C 256.078125 357.054688 254.601562 375.050781 245.695312 393.902344 C 237.761719 410.703125 226.597656 422.511719 219.246094 422.511719 C 218.347656 422.511719 217.507812 422.335938 216.734375 421.96875 C 209.648438 418.621094 211.121094 400.625 220.027344 381.773438 C 227.964844 364.976562 239.125 353.167969 246.480469 353.164062 M 246.480469 336.464844 C 246.476562 336.464844 246.476562 336.464844 246.476562 336.464844 C 224.65625 336.46875 209.15625 365.6875 204.929688 374.640625 C 199.785156 385.527344 196.519531 396.777344 195.738281 406.324219 C 194.082031 426.59375 203.714844 434.285156 209.601562 437.070312 C 212.609375 438.488281 215.851562 439.210938 219.246094 439.210938 C 241.0625 439.210938 256.5625 409.992188 260.792969 401.035156 C 265.9375 390.148438 269.203125 378.898438 269.984375 369.355469 C 271.640625 349.085938 262.011719 341.390625 256.121094 338.609375 C 253.113281 337.1875 249.871094 336.464844 246.480469 336.464844 Z M 246.480469 336.464844 " fill-opacity="1" fill-rule="nonzero"/><g fill="#5f4be2" fill-opacity="1"><g transform="translate(399.914986, 459.77405)"><g><path d="M 66.125 -19.25 C 66.125 -16.914062 66.332031 -15.054688 66.75 -13.671875 C 67.175781 -12.296875 67.773438 -11.238281 68.546875 -10.5 C 69.316406 -9.757812 70.203125 -9.269531 71.203125 -9.03125 C 72.210938 -8.789062 73.300781 -8.671875 74.46875 -8.671875 L 81.3125 -8.671875 L 81.3125 0 L 25.0625 0 L 25.0625 -8.671875 L 31.90625 -8.671875 C 33.125 -8.671875 34.238281 -8.789062 35.25 -9.03125 C 36.257812 -9.269531 37.132812 -9.757812 37.875 -10.5 C 38.613281 -11.238281 39.195312 -12.296875 39.625 -13.671875 C 40.050781 -15.054688 40.265625 -16.914062 40.265625 -19.25 L 40.265625 -106.375 L 27.21875 -106.375 C 24.769531 -106.375 22.722656 -106.109375 21.078125 -105.578125 C 19.441406 -105.054688 18.101562 -104.300781 17.0625 -103.3125 C 16.03125 -102.332031 15.257812 -101.125 14.75 -99.6875 C 14.25 -98.257812 13.894531 -96.644531 13.6875 -94.84375 L 12.578125 -84.734375 L 1.59375 -84.734375 L 2.46875 -116.328125 L 104 -116.328125 L 104.796875 -84.734375 L 93.890625 -84.734375 L 92.703125 -94.84375 C 92.484375 -96.644531 92.117188 -98.257812 91.609375 -99.6875 C 91.109375 -101.125 90.34375 -102.332031 89.3125 -103.3125 C 88.28125 -104.300781 86.941406 -105.054688 85.296875 -105.578125 C 83.648438 -106.109375 81.609375 -106.375 79.171875 -106.375 L 66.125 -106.375 Z M 66.125 -19.25 "/></g></g></g><g fill="#5f4be2" fill-opacity="1"><g transform="translate(506.290718, 459.77405)"><g><path d="M 72.171875 0 L 68.59375 -11.53125 L 67.796875 -11.53125 C 66.148438 -8.71875 64.367188 -6.445312 62.453125 -4.71875 C 60.546875 -3 58.503906 -1.675781 56.328125 -0.75 C 54.160156 0.175781 51.867188 0.796875 49.453125 1.109375 C 47.035156 1.429688 44.554688 1.59375 42.015625 1.59375 C 33.523438 1.59375 27.007812 -1.03125 22.46875 -6.28125 C 17.9375 -11.53125 15.671875 -19.648438 15.671875 -30.640625 L 15.671875 -67.15625 C 15.671875 -69.539062 15.457031 -71.472656 15.03125 -72.953125 C 14.613281 -74.441406 13.953125 -75.609375 13.046875 -76.453125 C 12.148438 -77.304688 11 -77.890625 9.59375 -78.203125 C 8.1875 -78.523438 6.5 -78.6875 4.53125 -78.6875 L 4.21875 -78.6875 L 4.21875 -87.359375 L 40.421875 -87.359375 L 40.421875 -35.171875 C 40.421875 -31.671875 40.617188 -28.515625 41.015625 -25.703125 C 41.410156 -22.890625 42.085938 -20.488281 43.046875 -18.5 C 44.003906 -16.507812 45.273438 -14.96875 46.859375 -13.875 C 48.453125 -12.789062 50.441406 -12.25 52.828125 -12.25 C 55.429688 -12.25 57.671875 -12.816406 59.546875 -13.953125 C 61.429688 -15.097656 62.972656 -16.742188 64.171875 -18.890625 C 65.367188 -21.046875 66.242188 -23.644531 66.796875 -26.6875 C 67.347656 -29.738281 67.625 -33.175781 67.625 -37 L 67.625 -68.265625 C 67.625 -70.648438 67.304688 -72.53125 66.671875 -73.90625 C 66.035156 -75.289062 65.1875 -76.34375 64.125 -77.0625 C 63.070312 -77.78125 61.828125 -78.226562 60.390625 -78.40625 C 58.960938 -78.59375 57.453125 -78.6875 55.859375 -78.6875 L 55.375 -78.6875 L 55.375 -87.359375 L 92.375 -87.359375 L 92.375 -18.9375 C 92.375 -16.550781 92.648438 -14.679688 93.203125 -13.328125 C 93.765625 -11.972656 94.519531 -10.953125 95.46875 -10.265625 C 96.425781 -9.578125 97.566406 -9.140625 98.890625 -8.953125 C 100.222656 -8.765625 101.6875 -8.671875 103.28125 -8.671875 L 104.625 -8.671875 L 104.625 0 Z M 72.171875 0 "/></g></g></g><g fill="#5f4be2" fill-opacity="1"><g transform="translate(614.973754, 459.77405)"><g><path d="M 51.15625 -11.53125 C 53.28125 -11.53125 55.3125 -11.675781 57.25 -11.96875 C 59.1875 -12.257812 61.003906 -12.617188 62.703125 -13.046875 L 62.703125 -2.46875 C 61.847656 -2.039062 60.691406 -1.585938 59.234375 -1.109375 C 57.773438 -0.628906 56.078125 -0.191406 54.140625 0.203125 C 52.203125 0.597656 50.015625 0.925781 47.578125 1.1875 C 45.140625 1.457031 42.488281 1.59375 39.625 1.59375 C 35.96875 1.59375 32.648438 1.15625 29.671875 0.28125 C 26.703125 -0.59375 24.179688 -2.050781 22.109375 -4.09375 C 20.046875 -6.132812 18.457031 -8.785156 17.34375 -12.046875 C 16.226562 -15.316406 15.671875 -19.335938 15.671875 -24.109375 L 15.671875 -76.21875 L 3.421875 -76.21875 L 3.421875 -84.578125 C 6.921875 -84.578125 10.050781 -85.265625 12.8125 -86.640625 C 15.570312 -88.023438 17.773438 -89.617188 19.421875 -91.421875 C 22.753906 -94.921875 25.242188 -100.304688 26.890625 -107.578125 L 40.421875 -107.578125 L 40.421875 -87.359375 L 61.265625 -87.359375 L 61.265625 -76.21875 L 40.421875 -76.21875 L 40.421875 -25.78125 C 40.421875 -20.84375 41.253906 -17.234375 42.921875 -14.953125 C 44.597656 -12.671875 47.34375 -11.53125 51.15625 -11.53125 Z M 51.15625 -11.53125 "/></g></g></g><g fill="#5f4be2" fill-opacity="1"><g transform="translate(680.93149, 459.77405)"><g><path d="M 92.21875 -44 C 92.21875 -28.664062 88.625 -17.234375 81.4375 -9.703125 C 74.25 -2.171875 63.679688 1.59375 49.734375 1.59375 C 43.203125 1.59375 37.335938 0.648438 32.140625 -1.234375 C 26.941406 -3.117188 22.523438 -5.941406 18.890625 -9.703125 C 15.265625 -13.472656 12.484375 -18.222656 10.546875 -23.953125 C 8.609375 -29.679688 7.640625 -36.363281 7.640625 -44 C 7.640625 -59.332031 11.234375 -70.738281 18.421875 -78.21875 C 25.609375 -85.695312 36.203125 -89.4375 50.203125 -89.4375 C 56.734375 -89.4375 62.582031 -88.503906 67.75 -86.640625 C 72.925781 -84.785156 77.328125 -81.972656 80.953125 -78.203125 C 84.585938 -74.441406 87.375 -69.707031 89.3125 -64 C 91.25 -58.300781 92.21875 -51.632812 92.21875 -44 Z M 32.9375 -44 C 32.9375 -38.21875 33.238281 -33.125 33.84375 -28.71875 C 34.457031 -24.320312 35.441406 -20.632812 36.796875 -17.65625 C 38.148438 -14.6875 39.914062 -12.445312 42.09375 -10.9375 C 44.269531 -9.425781 46.921875 -8.671875 50.046875 -8.671875 C 53.171875 -8.671875 55.804688 -9.425781 57.953125 -10.9375 C 60.109375 -12.445312 61.863281 -14.6875 63.21875 -17.65625 C 64.570312 -20.632812 65.539062 -24.320312 66.125 -28.71875 C 66.707031 -33.125 67 -38.21875 67 -44 C 67 -49.832031 66.691406 -54.9375 66.078125 -59.3125 C 65.472656 -63.6875 64.492188 -67.332031 63.140625 -70.25 C 61.785156 -73.175781 60.019531 -75.367188 57.84375 -76.828125 C 55.664062 -78.285156 53.015625 -79.015625 49.890625 -79.015625 C 46.753906 -79.015625 44.097656 -78.285156 41.921875 -76.828125 C 39.753906 -75.367188 38.003906 -73.175781 36.671875 -70.25 C 35.347656 -67.332031 34.394531 -63.6875 33.8125 -59.3125 C 33.226562 -54.9375 32.9375 -49.832031 32.9375 -44 Z M 32.9375 -44 "/></g></g></g><g fill="#5f4be2" fill-opacity="1"><g transform="translate(780.783058, 459.77405)"><g><path d="M 57.6875 0 L 3.265625 0 L 3.265625 -8.671875 L 3.734375 -8.671875 C 5.597656 -8.671875 7.296875 -8.800781 8.828125 -9.0625 C 10.367188 -9.332031 11.695312 -9.878906 12.8125 -10.703125 C 13.925781 -11.523438 14.785156 -12.703125 15.390625 -14.234375 C 16.003906 -15.773438 16.3125 -17.820312 16.3125 -20.375 L 16.3125 -67.625 C 16.3125 -70.019531 16.03125 -71.945312 15.46875 -73.40625 C 14.914062 -74.863281 14.117188 -75.988281 13.078125 -76.78125 C 12.046875 -77.570312 10.8125 -78.085938 9.375 -78.328125 C 7.945312 -78.566406 6.332031 -78.6875 4.53125 -78.6875 L 4.0625 -78.6875 L 4.0625 -87.359375 L 37 -87.359375 L 40.265625 -74.640625 L 41.0625 -74.640625 C 42.113281 -77.078125 43.273438 -79.207031 44.546875 -81.03125 C 45.828125 -82.863281 47.351562 -84.390625 49.125 -85.609375 C 50.90625 -86.828125 53 -87.742188 55.40625 -88.359375 C 57.820312 -88.972656 60.703125 -89.28125 64.046875 -89.28125 C 70.460938 -89.28125 75.179688 -88.148438 78.203125 -85.890625 C 81.234375 -83.640625 82.75 -80.363281 82.75 -76.0625 C 82.75 -71.082031 80.941406 -67.210938 77.328125 -64.453125 C 73.722656 -61.691406 68.632812 -60.3125 62.0625 -60.3125 C 62.0625 -62.539062 61.941406 -64.503906 61.703125 -66.203125 C 61.460938 -67.898438 61.035156 -69.304688 60.421875 -70.421875 C 59.816406 -71.535156 58.992188 -72.382812 57.953125 -72.96875 C 56.921875 -73.550781 55.640625 -73.84375 54.109375 -73.84375 C 52.191406 -73.84375 50.546875 -73.363281 49.171875 -72.40625 C 47.796875 -71.445312 46.628906 -70.210938 45.671875 -68.703125 C 44.710938 -67.191406 43.925781 -65.476562 43.3125 -63.5625 C 42.707031 -61.65625 42.234375 -59.734375 41.890625 -57.796875 C 41.546875 -55.867188 41.320312 -54.03125 41.21875 -52.28125 C 41.113281 -50.53125 41.0625 -49.015625 41.0625 -47.734375 L 41.0625 -19.578125 C 41.0625 -17.191406 41.351562 -15.265625 41.9375 -13.796875 C 42.519531 -12.335938 43.3125 -11.238281 44.3125 -10.5 C 45.320312 -9.757812 46.53125 -9.269531 47.9375 -9.03125 C 49.34375 -8.789062 50.84375 -8.671875 52.4375 -8.671875 L 57.6875 -8.671875 Z M 57.6875 0 "/></g></g></g><g fill="#fe9445" fill-opacity="1"><g transform="translate(866.024977, 459.77405)"><g><path d="M 4.53125 0 L 4.53125 -8.671875 L 11.375 -8.671875 C 12.59375 -8.671875 13.707031 -8.789062 14.71875 -9.03125 C 15.726562 -9.269531 16.601562 -9.757812 17.34375 -10.5 C 18.082031 -11.238281 18.664062 -12.296875 19.09375 -13.671875 C 19.519531 -15.054688 19.734375 -16.914062 19.734375 -19.25 L 19.734375 -97.078125 C 19.734375 -99.410156 19.519531 -101.265625 19.09375 -102.640625 C 18.664062 -104.015625 18.082031 -105.070312 17.34375 -105.8125 C 16.601562 -106.5625 15.726562 -107.054688 14.71875 -107.296875 C 13.707031 -107.535156 12.59375 -107.65625 11.375 -107.65625 L 4.53125 -107.65625 L 4.53125 -116.328125 L 60.796875 -116.328125 L 60.796875 -107.65625 L 53.953125 -107.65625 C 52.785156 -107.65625 51.679688 -107.535156 50.640625 -107.296875 C 49.609375 -107.054688 48.71875 -106.5625 47.96875 -105.8125 C 47.226562 -105.070312 46.644531 -104.015625 46.21875 -102.640625 C 45.800781 -101.265625 45.59375 -99.410156 45.59375 -97.078125 L 45.59375 -19.25 C 45.59375 -16.914062 45.800781 -15.054688 46.21875 -13.671875 C 46.644531 -12.296875 47.226562 -11.238281 47.96875 -10.5 C 48.71875 -9.757812 49.609375 -9.269531 50.640625 -9.03125 C 51.679688 -8.789062 52.785156 -8.671875 53.953125 -8.671875 L 60.796875 -8.671875 L 60.796875 0 Z M 4.53125 0 "/></g></g></g><g fill="#fe9445" fill-opacity="1"><g transform="translate(931.346208, 459.77405)"><g><path d="M 68.265625 0 L 68.265625 -53.625 C 68.265625 -57.125 68.039062 -60.238281 67.59375 -62.96875 C 67.144531 -65.707031 66.398438 -68.003906 65.359375 -69.859375 C 64.328125 -71.710938 62.972656 -73.128906 61.296875 -74.109375 C 59.628906 -75.097656 57.601562 -75.59375 55.21875 -75.59375 C 52.507812 -75.59375 50.253906 -74.898438 48.453125 -73.515625 C 46.648438 -72.140625 45.203125 -70.296875 44.109375 -67.984375 C 43.023438 -65.679688 42.242188 -63.003906 41.765625 -59.953125 C 41.296875 -56.898438 41.0625 -53.703125 41.0625 -50.359375 L 41.0625 -19.25 C 41.0625 -16.96875 41.335938 -15.140625 41.890625 -13.765625 C 42.453125 -12.390625 43.234375 -11.316406 44.234375 -10.546875 C 45.242188 -9.773438 46.476562 -9.269531 47.9375 -9.03125 C 49.394531 -8.789062 51.023438 -8.671875 52.828125 -8.671875 L 53.3125 -8.671875 L 53.3125 0 L 3.265625 0 L 3.265625 -8.671875 L 3.578125 -8.671875 C 5.429688 -8.671875 7.128906 -8.789062 8.671875 -9.03125 C 10.210938 -9.269531 11.550781 -9.785156 12.6875 -10.578125 C 13.832031 -11.378906 14.722656 -12.519531 15.359375 -14 C 15.992188 -15.488281 16.3125 -17.453125 16.3125 -19.890625 L 16.3125 -68.109375 C 16.3125 -70.390625 16.03125 -72.21875 15.46875 -73.59375 C 14.914062 -74.976562 14.117188 -76.050781 13.078125 -76.8125 C 12.046875 -77.582031 10.8125 -78.085938 9.375 -78.328125 C 7.945312 -78.566406 6.332031 -78.6875 4.53125 -78.6875 L 4.0625 -78.6875 L 4.0625 -87.359375 L 38.265625 -87.359375 L 40.421875 -75.75 L 41.21875 -75.75 C 42.863281 -78.820312 44.597656 -81.257812 46.421875 -83.0625 C 48.253906 -84.863281 50.203125 -86.242188 52.265625 -87.203125 C 54.335938 -88.160156 56.523438 -88.769531 58.828125 -89.03125 C 61.140625 -89.300781 63.570312 -89.4375 66.125 -89.4375 C 70.3125 -89.4375 74.078125 -88.820312 77.421875 -87.59375 C 80.765625 -86.375 83.585938 -84.492188 85.890625 -81.953125 C 88.203125 -79.410156 89.96875 -76.160156 91.1875 -72.203125 C 92.40625 -68.253906 93.015625 -63.519531 93.015625 -58 L 93.015625 -20.203125 C 93.015625 -17.660156 93.238281 -15.632812 93.6875 -14.125 C 94.132812 -12.613281 94.8125 -11.457031 95.71875 -10.65625 C 96.625 -9.863281 97.765625 -9.332031 99.140625 -9.0625 C 100.515625 -8.800781 102.132812 -8.671875 104 -8.671875 L 104.46875 -8.671875 L 104.46875 0 Z M 68.265625 0 "/></g></g></g></svg>