<?xml version="1.0" encoding="UTF-8"?>
<svg xmlns="http://www.w3.org/2000/svg" xmlns:xlink="http://www.w3.org/1999/xlink" width="857px" height="389px" viewBox="0 0 857 389" version="1.1">
<defs>
<clipPath id="clip1">
  <path d="M 57.34375 103.300781 L 224.175781 103.300781 L 224.175781 237.925781 L 57.34375 237.925781 Z M 57.34375 103.300781 "/>
</clipPath>
<clipPath id="clip2">
  <path d="M 140.761719 103.300781 C 94.691406 103.300781 57.34375 133.4375 57.34375 170.613281 C 57.34375 207.789062 94.691406 237.925781 140.761719 237.925781 C 186.832031 237.925781 224.175781 207.789062 224.175781 170.613281 C 224.175781 133.4375 186.832031 103.300781 140.761719 103.300781 Z M 140.761719 103.300781 "/>
</clipPath>
<clipPath id="clip3">
  <path d="M 85.699219 117.257812 L 199.964844 117.257812 L 199.964844 233.398438 L 85.699219 233.398438 Z M 85.699219 117.257812 "/>
</clipPath>
<clipPath id="clip4">
  <path d="M 126 117.257812 L 199.964844 117.257812 L 199.964844 165.203125 L 126 165.203125 Z M 126 117.257812 "/>
</clipPath>
<clipPath id="clip5">
  <path d="M 82.128906 256.453125 L 199 256.453125 L 199 264.695312 L 82.128906 264.695312 Z M 82.128906 256.453125 "/>
</clipPath>
</defs>
<g id="surface1">
<g clip-path="url(#clip1)" clip-rule="nonzero">
<g clip-path="url(#clip2)" clip-rule="nonzero">
<path style=" stroke:none;fill-rule:nonzero;fill:rgb(37.254902%,29.411765%,88.627451%);fill-opacity:1;" d="M 57.34375 103.300781 L 224.175781 103.300781 L 224.175781 237.925781 L 57.34375 237.925781 Z M 57.34375 103.300781 "/>
</g>
</g>
<path style=" stroke:none;fill-rule:nonzero;fill:rgb(100%,96.470588%,92.156863%);fill-opacity:1;" d="M 107.09375 257.84375 C 106.371094 257.84375 105.640625 257.71875 104.957031 257.457031 L 88.546875 251.152344 C 86.644531 250.425781 85.519531 248.804688 85.738281 247.113281 L 90.964844 206.914062 C 91.136719 205.617188 92.070312 204.472656 93.480469 203.835938 C 94.230469 203.492188 95.070312 203.324219 95.90625 203.324219 C 96.636719 203.324219 97.367188 203.449219 98.042969 203.710938 L 144.589844 221.582031 C 146.046875 222.140625 147.074219 223.238281 147.351562 224.519531 C 147.625 225.800781 147.109375 227.113281 145.972656 228.035156 L 110.613281 256.667969 C 109.660156 257.4375 108.386719 257.84375 107.09375 257.84375 Z M 107.09375 257.84375 "/>
<path style=" stroke:none;fill-rule:nonzero;fill:rgb(37.254902%,29.411765%,88.627451%);fill-opacity:1;" d="M 95.90625 207.332031 L 142.453125 225.203125 L 107.09375 253.835938 L 90.679688 247.535156 L 95.90625 207.332031 M 95.90625 199.3125 C 94.230469 199.3125 92.554688 199.65625 91.046875 200.339844 C 88.234375 201.609375 86.359375 203.90625 86.023438 206.496094 L 80.792969 246.695312 C 80.355469 250.078125 82.605469 253.316406 86.410156 254.773438 L 102.824219 261.078125 C 104.1875 261.601562 105.644531 261.855469 107.089844 261.855469 C 109.675781 261.855469 112.226562 261.042969 114.132812 259.496094 L 149.492188 230.863281 C 151.769531 229.019531 152.796875 226.398438 152.246094 223.835938 C 151.695312 221.269531 149.636719 219.082031 146.722656 217.960938 L 100.175781 200.089844 C 98.824219 199.570312 97.367188 199.3125 95.90625 199.3125 Z M 95.90625 199.3125 "/>
<path style=" stroke:none;fill-rule:nonzero;fill:rgb(100%,96.470588%,92.156863%);fill-opacity:1;" d="M 142.453125 229.214844 C 141.738281 229.214844 141.011719 229.089844 140.324219 228.828125 L 93.769531 210.953125 C 91.347656 210.023438 90.277344 207.707031 91.351562 205.726562 L 91.417969 205.601562 C 91.527344 205.398438 91.636719 205.195312 91.753906 204.996094 L 137.917969 126.699219 C 139.113281 124.679688 142.382812 121.28125 150.871094 121.28125 C 164.449219 121.28125 185.65625 130.027344 192.128906 138.296875 C 195.476562 142.574219 194.710938 145.953125 193.484375 148.035156 L 147.320312 226.328125 C 147.203125 226.53125 147.074219 226.730469 146.945312 226.929688 L 146.871094 227.046875 C 145.992188 228.421875 144.257812 229.214844 142.453125 229.214844 Z M 142.453125 229.214844 "/>
<g clip-path="url(#clip3)" clip-rule="nonzero">
<path style=" stroke:none;fill-rule:nonzero;fill:rgb(37.254902%,29.411765%,88.627451%);fill-opacity:1;" d="M 150.875 125.292969 C 165.921875 125.292969 193.824219 138.132812 189 146.3125 L 142.835938 224.605469 C 142.714844 224.808594 142.585938 225.007812 142.460938 225.203125 L 95.90625 207.328125 C 96.015625 207.125 96.125 206.921875 96.242188 206.714844 L 142.40625 128.425781 C 143.707031 126.222656 146.824219 125.292969 150.875 125.292969 M 150.875 117.273438 C 139.652344 117.273438 135.132812 122.101562 133.433594 124.980469 L 87.269531 203.273438 C 87.125 203.511719 86.992188 203.757812 86.863281 204 L 86.800781 204.117188 C 84.648438 208.082031 86.789062 212.710938 91.636719 214.574219 L 138.1875 232.445312 C 139.566406 232.976562 141.019531 233.226562 142.453125 233.226562 C 146.058594 233.226562 149.527344 231.636719 151.289062 228.882812 L 151.359375 228.773438 C 151.511719 228.539062 151.664062 228.296875 151.808594 228.054688 L 197.972656 149.761719 C 199.417969 147.308594 201.125 142.285156 196.332031 136.15625 C 188.871094 126.628906 166.355469 117.273438 150.875 117.273438 Z M 150.875 117.273438 "/>
</g>
<path style=" stroke:none;fill-rule:nonzero;fill:rgb(100%,96.470588%,92.156863%);fill-opacity:1;" d="M 182.609375 161.164062 C 181.875 161.164062 181.144531 161.035156 180.472656 160.777344 L 133.878906 142.886719 C 131.402344 141.933594 130.347656 139.542969 131.527344 137.542969 L 137.921875 126.699219 C 139.113281 124.679688 142.382812 121.28125 150.875 121.28125 C 164.453125 121.28125 185.65625 130.027344 192.128906 138.296875 C 195.476562 142.574219 194.710938 145.953125 193.484375 148.035156 L 187.09375 158.878906 C 186.527344 159.835938 185.511719 160.578125 184.269531 160.933594 C 183.730469 161.085938 183.167969 161.164062 182.609375 161.164062 Z M 182.609375 161.164062 "/>
<g clip-path="url(#clip4)" clip-rule="nonzero">
<path style=" stroke:none;fill-rule:nonzero;fill:rgb(37.254902%,29.411765%,88.627451%);fill-opacity:1;" d="M 150.875 125.292969 C 165.921875 125.292969 193.824219 138.132812 189 146.3125 L 182.609375 157.15625 L 136.015625 139.265625 L 142.40625 128.425781 C 143.707031 126.222656 146.824219 125.292969 150.875 125.292969 M 150.878906 117.273438 C 150.878906 117.273438 150.875 117.273438 150.871094 117.273438 C 139.652344 117.273438 135.128906 122.101562 133.433594 124.980469 L 127.042969 135.820312 C 124.683594 139.820312 126.789062 144.605469 131.746094 146.507812 L 178.335938 164.394531 C 179.714844 164.925781 181.167969 165.175781 182.601562 165.175781 C 186.316406 165.175781 189.878906 163.488281 191.582031 160.601562 L 197.972656 149.761719 C 199.417969 147.308594 201.125 142.28125 196.332031 136.15625 C 188.871094 126.628906 166.359375 117.273438 150.878906 117.273438 Z M 150.878906 117.273438 "/>
</g>
<g clip-path="url(#clip5)" clip-rule="nonzero">
<path style=" stroke:none;fill-rule:nonzero;fill:rgb(37.254902%,29.411765%,88.627451%);fill-opacity:1;" d="M 193.949219 264.902344 L 87.570312 264.902344 C 84.824219 264.902344 82.601562 263.109375 82.601562 260.894531 C 82.601562 258.679688 84.824219 256.882812 87.570312 256.882812 L 193.949219 256.882812 C 196.691406 256.882812 198.914062 258.679688 198.914062 260.894531 C 198.914062 263.109375 196.691406 264.902344 193.949219 264.902344 Z M 193.949219 264.902344 "/>
</g>
<path style=" stroke:none;fill-rule:nonzero;fill:rgb(100%,96.470588%,92.156863%);fill-opacity:1;" d="M 130.480469 206.917969 C 129.203125 206.917969 127.984375 206.703125 126.863281 206.277344 C 118.484375 203.082031 120.621094 191.597656 126.453125 181.632812 C 130.785156 174.234375 138.683594 165.597656 146.691406 165.597656 C 147.96875 165.597656 149.183594 165.816406 150.304688 166.242188 C 158.6875 169.433594 156.550781 180.917969 150.714844 190.882812 C 146.386719 198.28125 138.484375 206.917969 130.480469 206.917969 Z M 130.480469 206.917969 "/>
<path style=" stroke:none;fill-rule:nonzero;fill:rgb(37.254902%,29.411765%,88.627451%);fill-opacity:1;" d="M 146.691406 169.605469 C 147.222656 169.605469 147.726562 169.691406 148.183594 169.867188 C 152.402344 171.472656 151.523438 180.117188 146.222656 189.171875 C 141.5 197.238281 134.855469 202.910156 130.480469 202.910156 C 129.945312 202.910156 129.449219 202.824219 128.988281 202.648438 C 124.769531 201.042969 125.644531 192.398438 130.945312 183.34375 C 135.671875 175.277344 142.3125 169.609375 146.691406 169.605469 M 146.691406 161.585938 C 146.6875 161.585938 146.6875 161.585938 146.6875 161.585938 C 133.703125 161.589844 124.476562 175.621094 121.960938 179.921875 C 118.898438 185.148438 116.957031 190.550781 116.492188 195.136719 C 115.503906 204.871094 121.238281 208.5625 124.742188 209.902344 C 126.53125 210.582031 128.460938 210.929688 130.480469 210.929688 C 143.464844 210.929688 152.691406 196.898438 155.207031 192.597656 C 158.269531 187.367188 160.214844 181.964844 160.679688 177.382812 C 161.664062 167.648438 155.933594 163.953125 152.425781 162.617188 C 150.636719 161.933594 148.707031 161.585938 146.691406 161.585938 Z M 146.691406 161.585938 "/>
<path style=" stroke:none;fill-rule:nonzero;fill:rgb(37.254902%,29.411765%,88.627451%);fill-opacity:1;" d="M 277.359375 211.558594 C 277.359375 212.683594 277.480469 213.574219 277.730469 214.238281 C 277.984375 214.898438 278.339844 215.40625 278.800781 215.761719 C 279.257812 216.117188 279.785156 216.351562 280.378906 216.46875 C 280.980469 216.585938 281.628906 216.640625 282.324219 216.640625 L 286.398438 216.640625 L 286.398438 220.804688 L 252.921875 220.804688 L 252.921875 216.640625 L 256.992188 216.640625 C 257.71875 216.640625 258.382812 216.585938 258.984375 216.46875 C 259.582031 216.351562 260.105469 216.117188 260.546875 215.761719 C 260.984375 215.40625 261.332031 214.898438 261.585938 214.238281 C 261.839844 213.574219 261.96875 212.683594 261.96875 211.558594 L 261.96875 169.71875 L 254.203125 169.71875 C 252.746094 169.71875 251.527344 169.847656 250.550781 170.101562 C 249.574219 170.351562 248.777344 170.714844 248.160156 171.191406 C 247.546875 171.660156 247.085938 172.238281 246.785156 172.929688 C 246.484375 173.617188 246.273438 174.390625 246.152344 175.257812 L 245.492188 180.113281 L 238.953125 180.113281 L 239.472656 164.9375 L 299.898438 164.9375 L 300.375 180.113281 L 293.882812 180.113281 L 293.175781 175.257812 C 293.046875 174.390625 292.828125 173.617188 292.523438 172.929688 C 292.226562 172.238281 291.773438 171.660156 291.160156 171.191406 C 290.542969 170.714844 289.746094 170.351562 288.769531 170.101562 C 287.789062 169.847656 286.574219 169.71875 285.125 169.71875 L 277.359375 169.71875 Z M 277.359375 211.558594 "/>
<path style=" stroke:none;fill-rule:nonzero;fill:rgb(37.254902%,29.411765%,88.627451%);fill-opacity:1;" d="M 344.265625 220.804688 L 342.136719 215.265625 L 341.660156 215.265625 C 340.679688 216.617188 339.621094 217.710938 338.480469 218.539062 C 337.347656 219.363281 336.132812 220 334.835938 220.445312 C 333.546875 220.890625 332.179688 221.1875 330.746094 221.335938 C 329.304688 221.492188 327.828125 221.570312 326.320312 221.570312 C 321.265625 221.570312 317.386719 220.308594 314.683594 217.789062 C 311.988281 215.265625 310.640625 211.367188 310.640625 206.089844 L 310.640625 188.554688 C 310.640625 187.410156 310.511719 186.480469 310.257812 185.769531 C 310.011719 185.054688 309.617188 184.492188 309.078125 184.089844 C 308.542969 183.679688 307.859375 183.398438 307.023438 183.25 C 306.1875 183.09375 305.183594 183.015625 304.011719 183.015625 L 303.824219 183.015625 L 303.824219 178.851562 L 325.371094 178.851562 L 325.371094 203.914062 C 325.371094 205.59375 325.484375 207.109375 325.722656 208.460938 C 325.957031 209.8125 326.359375 210.964844 326.933594 211.921875 C 327.5 212.878906 328.257812 213.617188 329.199219 214.140625 C 330.148438 214.664062 331.332031 214.921875 332.753906 214.921875 C 334.300781 214.921875 335.636719 214.648438 336.753906 214.105469 C 337.871094 213.554688 338.789062 212.765625 339.503906 211.734375 C 340.214844 210.699219 340.738281 209.449219 341.066406 207.988281 C 341.394531 206.523438 341.558594 204.871094 341.558594 203.035156 L 341.558594 188.019531 C 341.558594 186.875 341.367188 185.972656 340.992188 185.3125 C 340.613281 184.648438 340.109375 184.140625 339.476562 183.796875 C 338.847656 183.449219 338.109375 183.238281 337.253906 183.152344 C 336.402344 183.0625 335.507812 183.015625 334.558594 183.015625 L 334.269531 183.015625 L 334.269531 178.851562 L 356.289062 178.851562 L 356.289062 211.710938 C 356.289062 212.855469 356.453125 213.753906 356.78125 214.402344 C 357.117188 215.054688 357.566406 215.542969 358.128906 215.875 C 358.699219 216.207031 359.378906 216.414062 360.167969 216.503906 C 360.960938 216.59375 361.832031 216.640625 362.78125 216.640625 L 363.578125 216.640625 L 363.578125 220.804688 Z M 344.265625 220.804688 "/>
<path style=" stroke:none;fill-rule:nonzero;fill:rgb(37.254902%,29.411765%,88.627451%);fill-opacity:1;" d="M 396.441406 215.265625 C 397.703125 215.265625 398.914062 215.199219 400.066406 215.058594 C 401.21875 214.917969 402.300781 214.746094 403.3125 214.539062 L 403.3125 219.621094 C 402.804688 219.824219 402.113281 220.042969 401.246094 220.273438 C 400.378906 220.503906 399.367188 220.714844 398.214844 220.902344 C 397.0625 221.09375 395.761719 221.25 394.308594 221.375 C 392.859375 221.503906 391.28125 221.570312 389.578125 221.570312 C 387.402344 221.570312 385.425781 221.359375 383.652344 220.941406 C 381.886719 220.519531 380.386719 219.820312 379.152344 218.839844 C 377.925781 217.859375 376.980469 216.585938 376.316406 215.019531 C 375.652344 213.449219 375.320312 211.519531 375.320312 209.226562 L 375.320312 184.203125 L 368.03125 184.203125 L 368.03125 180.1875 C 370.113281 180.1875 371.976562 179.855469 373.621094 179.195312 C 375.261719 178.53125 376.574219 177.765625 377.554688 176.898438 C 379.535156 175.21875 381.015625 172.632812 382 169.140625 L 390.050781 169.140625 L 390.050781 178.851562 L 402.457031 178.851562 L 402.457031 184.203125 L 390.050781 184.203125 L 390.050781 208.421875 C 390.050781 210.796875 390.546875 212.527344 391.539062 213.625 C 392.535156 214.71875 394.171875 215.265625 396.441406 215.265625 Z M 396.441406 215.265625 "/>
<path style=" stroke:none;fill-rule:nonzero;fill:rgb(37.254902%,29.411765%,88.627451%);fill-opacity:1;" d="M 460.132812 199.675781 C 460.132812 207.039062 457.992188 212.527344 453.714844 216.144531 C 449.4375 219.761719 443.148438 221.570312 434.847656 221.570312 C 430.960938 221.570312 427.46875 221.117188 424.375 220.210938 C 421.28125 219.308594 418.652344 217.953125 416.492188 216.144531 C 414.332031 214.335938 412.679688 212.054688 411.527344 209.300781 C 410.371094 206.550781 409.796875 203.339844 409.796875 199.675781 C 409.796875 192.3125 411.933594 186.832031 416.210938 183.242188 C 420.488281 179.648438 426.792969 177.851562 435.125 177.851562 C 439.011719 177.851562 442.492188 178.300781 445.570312 179.195312 C 448.648438 180.085938 451.269531 181.4375 453.425781 183.25 C 455.589844 185.054688 457.25 187.328125 458.402344 190.070312 C 459.554688 192.804688 460.132812 196.007812 460.132812 199.675781 Z M 424.851562 199.675781 C 424.851562 202.449219 425.03125 204.898438 425.390625 207.011719 C 425.753906 209.125 426.339844 210.894531 427.148438 212.324219 C 427.953125 213.75 429.003906 214.828125 430.300781 215.550781 C 431.59375 216.277344 433.175781 216.640625 435.035156 216.640625 C 436.894531 216.640625 438.460938 216.277344 439.738281 215.550781 C 441.023438 214.828125 442.066406 213.75 442.871094 212.324219 C 443.675781 210.894531 444.253906 209.125 444.601562 207.011719 C 444.949219 204.898438 445.125 202.449219 445.125 199.675781 C 445.125 196.875 444.941406 194.421875 444.574219 192.320312 C 444.214844 190.21875 443.628906 188.46875 442.828125 187.066406 C 442.019531 185.664062 440.96875 184.609375 439.675781 183.910156 C 438.375 183.207031 436.800781 182.859375 434.941406 182.859375 C 433.074219 182.859375 431.492188 183.207031 430.199219 183.910156 C 428.90625 184.609375 427.867188 185.664062 427.074219 187.066406 C 426.285156 188.46875 425.71875 190.21875 425.371094 192.320312 C 425.023438 194.421875 424.851562 196.875 424.851562 199.675781 Z M 424.851562 199.675781 "/>
<path style=" stroke:none;fill-rule:nonzero;fill:rgb(37.254902%,29.411765%,88.627451%);fill-opacity:1;" d="M 499.007812 220.804688 L 466.617188 220.804688 L 466.617188 216.640625 L 466.898438 216.640625 C 468.003906 216.640625 469.015625 216.578125 469.929688 216.453125 C 470.84375 216.324219 471.632812 216.0625 472.300781 215.664062 C 472.960938 215.269531 473.472656 214.703125 473.832031 213.96875 C 474.199219 213.230469 474.382812 212.246094 474.382812 211.019531 L 474.382812 188.328125 C 474.382812 187.179688 474.214844 186.253906 473.878906 185.550781 C 473.550781 184.851562 473.074219 184.3125 472.457031 183.929688 C 471.84375 183.550781 471.109375 183.304688 470.253906 183.1875 C 469.402344 183.074219 468.441406 183.015625 467.371094 183.015625 L 467.09375 183.015625 L 467.09375 178.851562 L 486.695312 178.851562 L 488.636719 184.960938 L 489.113281 184.960938 C 489.738281 183.789062 490.429688 182.765625 491.1875 181.890625 C 491.949219 181.011719 492.855469 180.277344 493.910156 179.691406 C 494.96875 179.105469 496.214844 178.667969 497.648438 178.371094 C 499.085938 178.078125 500.800781 177.929688 502.792969 177.929688 C 506.609375 177.929688 509.417969 178.472656 511.214844 179.554688 C 513.019531 180.636719 513.921875 182.210938 513.921875 184.277344 C 513.921875 186.667969 512.847656 188.527344 510.695312 189.851562 C 508.550781 191.179688 505.519531 191.839844 501.609375 191.839844 C 501.609375 190.769531 501.539062 189.828125 501.394531 189.011719 C 501.253906 188.195312 501 187.523438 500.632812 186.984375 C 500.273438 186.449219 499.78125 186.042969 499.164062 185.761719 C 498.550781 185.484375 497.789062 185.34375 496.878906 185.34375 C 495.734375 185.34375 494.757812 185.574219 493.9375 186.03125 C 493.121094 186.492188 492.425781 187.085938 491.855469 187.8125 C 491.285156 188.535156 490.816406 189.359375 490.453125 190.28125 C 490.089844 191.195312 489.808594 192.117188 489.605469 193.046875 C 489.402344 193.976562 489.265625 194.855469 489.207031 195.695312 C 489.140625 196.539062 489.113281 197.265625 489.113281 197.878906 L 489.113281 211.402344 C 489.113281 212.550781 489.285156 213.472656 489.632812 214.179688 C 489.980469 214.878906 490.453125 215.40625 491.046875 215.761719 C 491.644531 216.117188 492.367188 216.351562 493.203125 216.46875 C 494.039062 216.585938 494.933594 216.640625 495.882812 216.640625 L 499.007812 216.640625 Z M 499.007812 220.804688 "/>
<path style=" stroke:none;fill-rule:nonzero;fill:rgb(99.607843%,58.039216%,27.058824%);fill-opacity:1;" d="M 518.101562 220.804688 L 518.101562 216.640625 L 522.175781 216.640625 C 522.898438 216.640625 523.5625 216.585938 524.164062 216.46875 C 524.765625 216.351562 525.285156 216.117188 525.726562 215.761719 C 526.167969 215.40625 526.511719 214.898438 526.769531 214.238281 C 527.023438 213.574219 527.148438 212.683594 527.148438 211.558594 L 527.148438 174.183594 C 527.148438 173.0625 527.023438 172.171875 526.769531 171.511719 C 526.511719 170.851562 526.167969 170.34375 525.726562 169.988281 C 525.285156 169.628906 524.765625 169.390625 524.164062 169.277344 C 523.5625 169.160156 522.898438 169.101562 522.175781 169.101562 L 518.101562 169.101562 L 518.101562 164.9375 L 551.585938 164.9375 L 551.585938 169.101562 L 547.515625 169.101562 C 546.820312 169.101562 546.160156 169.160156 545.542969 169.277344 C 544.929688 169.390625 544.398438 169.628906 543.953125 169.988281 C 543.511719 170.34375 543.164062 170.851562 542.910156 171.511719 C 542.664062 172.171875 542.539062 173.0625 542.539062 174.183594 L 542.539062 211.558594 C 542.539062 212.683594 542.664062 213.574219 542.910156 214.238281 C 543.164062 214.898438 543.511719 215.40625 543.953125 215.761719 C 544.398438 216.117188 544.929688 216.351562 545.542969 216.46875 C 546.160156 216.585938 546.820312 216.640625 547.515625 216.640625 L 551.585938 216.640625 L 551.585938 220.804688 Z M 518.101562 220.804688 "/>
<path style=" stroke:none;fill-rule:nonzero;fill:rgb(99.607843%,58.039216%,27.058824%);fill-opacity:1;" d="M 594.90625 220.804688 L 594.90625 195.050781 C 594.90625 193.371094 594.773438 191.875 594.507812 190.566406 C 594.242188 189.25 593.796875 188.144531 593.179688 187.253906 C 592.566406 186.367188 591.757812 185.683594 590.761719 185.214844 C 589.769531 184.738281 588.5625 184.5 587.144531 184.5 C 585.53125 184.5 584.1875 184.835938 583.117188 185.5 C 582.042969 186.160156 581.183594 187.046875 580.53125 188.15625 C 579.886719 189.261719 579.421875 190.546875 579.136719 192.011719 C 578.859375 193.480469 578.71875 195.015625 578.71875 196.621094 L 578.71875 211.558594 C 578.71875 212.65625 578.882812 213.535156 579.210938 214.195312 C 579.546875 214.855469 580.011719 215.371094 580.605469 215.738281 C 581.207031 216.113281 581.941406 216.351562 582.808594 216.46875 C 583.675781 216.585938 584.644531 216.640625 585.71875 216.640625 L 586.007812 216.640625 L 586.007812 220.804688 L 556.222656 220.804688 L 556.222656 216.640625 L 556.410156 216.640625 C 557.511719 216.640625 558.523438 216.585938 559.441406 216.46875 C 560.355469 216.351562 561.15625 216.105469 561.832031 215.726562 C 562.511719 215.339844 563.042969 214.792969 563.421875 214.082031 C 563.796875 213.367188 563.988281 212.421875 563.988281 211.253906 L 563.988281 188.097656 C 563.988281 187 563.820312 186.121094 563.488281 185.460938 C 563.15625 184.796875 562.683594 184.28125 562.0625 183.917969 C 561.449219 183.546875 560.714844 183.304688 559.859375 183.1875 C 559.007812 183.074219 558.046875 183.015625 556.976562 183.015625 L 556.699219 183.015625 L 556.699219 178.851562 L 577.054688 178.851562 L 578.335938 184.425781 L 578.8125 184.425781 C 579.789062 182.953125 580.820312 181.78125 581.90625 180.914062 C 583 180.050781 584.15625 179.386719 585.386719 178.925781 C 586.617188 178.464844 587.917969 178.171875 589.292969 178.046875 C 590.667969 177.917969 592.113281 177.851562 593.632812 177.851562 C 596.125 177.851562 598.367188 178.148438 600.355469 178.738281 C 602.347656 179.324219 604.027344 180.226562 605.398438 181.449219 C 606.773438 182.667969 607.824219 184.230469 608.550781 186.128906 C 609.273438 188.027344 609.636719 190.300781 609.636719 192.949219 L 609.636719 211.101562 C 609.636719 212.324219 609.769531 213.296875 610.039062 214.023438 C 610.300781 214.746094 610.707031 215.304688 611.246094 215.6875 C 611.785156 216.066406 612.464844 216.324219 613.28125 216.453125 C 614.101562 216.578125 615.0625 216.640625 616.175781 216.640625 L 616.453125 216.640625 L 616.453125 220.804688 Z M 594.90625 220.804688 "/>
</g>
</svg>
