<?xml version="1.0" standalone="no"?>
<!DOCTYPE svg PUBLIC "-//W3C//DTD SVG 20010904//EN"
 "http://www.w3.org/TR/2001/REC-SVG-20010904/DTD/svg10.dtd">
<svg version="1.0" xmlns="http://www.w3.org/2000/svg"
 width="1600.000000pt" height="726.000000pt" viewBox="0 0 1600.000000 726.000000"
 preserveAspectRatio="xMidYMid meet">
<metadata>
Created by potrace 1.16, written by Peter Selinger 2001-2019
</metadata>
<g transform="translate(0.000000,726.000000) scale(0.100000,-0.100000)"
fill="#000000" stroke="none">
<path d="M4280 5344 c-14 -3 -61 -12 -105 -20 -435 -84 -835 -421 -996 -839
-197 -508 -87 -1064 289 -1466 l68 -72 -24 -231 c-30 -292 -27 -305 88 -370
41 -24 43 -26 18 -26 -84 0 -125 -77 -74 -137 l24 -28 879 -3 c614 -2 886 1
904 9 48 19 64 89 30 130 l-19 24 -633 3 -633 2 139 140 140 140 97 0 c266 0
538 86 781 247 106 70 271 239 350 359 107 161 168 305 210 493 30 140 30 413
-1 558 -60 276 -176 487 -382 694 -152 152 -305 252 -492 320 -154 57 -235 70
-443 74 -104 2 -201 1 -215 -1z m482 -420 c142 -35 343 -147 422 -235 46 -50
70 -103 63 -138 -9 -41 -105 -241 -117 -241 -5 0 -176 79 -379 176 l-369 176
49 104 c27 57 56 115 64 128 36 54 128 64 267 30z m-79 -576 c199 -94 367
-176 373 -182 8 -8 -66 -173 -275 -613 -157 -331 -289 -602 -293 -603 -4 0
-174 79 -378 177 -223 106 -370 181 -368 189 5 19 570 1204 575 1204 2 0 167
-77 366 -172z m-573 -1393 c113 -53 218 -104 234 -112 l29 -15 -224 -224
c-123 -123 -228 -224 -232 -224 -5 0 -67 28 -138 62 l-130 62 5 35 c3 20 17
149 31 286 14 138 28 264 31 282 l5 32 92 -43 c51 -24 184 -87 297 -141z"/>
<path d="M4511 4208 c-201 -35 -433 -405 -435 -693 -1 -97 20 -163 67 -214 58
-63 173 -79 263 -37 183 85 367 423 369 676 0 85 -3 101 -28 153 -45 91 -132
134 -236 115z m86 -167 c96 -90 -64 -513 -235 -622 -56 -35 -76 -36 -107 -4
-91 90 68 511 232 615 55 35 81 37 110 11z"/>
<path d="M6207 3743 c-4 -58 -7 -139 -7 -180 l0 -73 63 0 64 0 11 82 c7 45 19
92 28 106 24 37 73 52 174 52 l90 0 0 -499 c0 -322 -4 -509 -10 -528 -13 -37
-46 -53 -110 -53 l-50 0 0 -50 0 -50 315 0 315 0 0 50 0 50 -45 0 c-51 0 -98
20 -111 47 -5 10 -10 246 -12 526 l-3 507 84 0 c178 0 198 -20 221 -220 1 -11
17 -16 64 -18 l62 -3 0 181 0 180 -568 0 -569 0 -6 -107z"/>
<path d="M8864 3723 c-31 -126 -128 -223 -224 -223 -30 0 -30 0 -30 -55 l0
-55 64 0 64 0 4 -327 c5 -369 11 -402 76 -468 64 -64 192 -82 350 -49 111 23
112 24 112 95 l0 61 -38 -7 c-64 -11 -136 -9 -160 4 -48 25 -52 57 -52 385 l0
305 113 3 112 3 3 68 3 67 -116 0 -115 0 0 110 0 110 -80 0 c-79 0 -80 0 -86
-27z"/>
<path d="M9723 3535 c-221 -48 -333 -215 -333 -495 0 -329 167 -510 470 -510
147 0 277 48 353 129 88 94 120 194 120 376 1 173 -36 293 -118 384 -95 105
-310 155 -492 116z m241 -158 c51 -52 63 -91 78 -234 21 -202 -14 -402 -80
-453 -38 -31 -95 -43 -141 -30 -104 28 -149 170 -138 439 6 166 24 230 77 283
36 36 41 38 101 38 61 0 64 -1 103 -43z"/>
<path d="M11036 3539 c-63 -15 -110 -54 -148 -123 -18 -34 -17 -36 -43 57
l-16 57 -185 0 -184 0 0 -55 0 -55 36 0 c26 0 43 -8 65 -29 l29 -29 0 -327 0
-326 -23 -23 c-14 -14 -42 -26 -70 -30 l-47 -7 0 -50 0 -49 305 0 305 0 0 49
0 48 -67 6 c-111 11 -108 2 -108 295 0 215 2 254 19 305 21 64 71 117 111 117
43 0 77 -40 83 -98 4 -51 5 -52 36 -52 48 0 108 20 145 47 44 34 64 84 58 147
-4 41 -11 55 -39 82 -53 48 -163 66 -262 43z"/>
<path d="M7410 3475 c0 -55 0 -55 31 -55 17 0 39 -5 49 -10 42 -22 45 -44 51
-355 6 -347 10 -367 90 -447 61 -61 129 -82 240 -76 99 6 175 41 223 104 l34
44 17 -65 18 -65 183 0 184 0 0 49 0 49 -45 6 c-31 5 -51 15 -65 33 -19 25
-20 39 -20 434 l0 409 -210 0 -210 0 0 -54 0 -53 47 -6 c85 -9 85 -8 81 -321
-3 -258 -4 -273 -26 -316 -30 -61 -64 -84 -124 -84 -39 0 -53 5 -76 27 -52 50
-55 73 -59 455 l-4 352 -205 0 -204 0 0 -55z"/>
</g>
</svg>
